<?xml version="1.0" encoding="UTF-8" standalone="no"?>
<!-- Created with Inkscape (http://www.inkscape.org/) -->

<svg
   version="1.1"
   id="svg1"
   width="664.7027"
   height="269.40668"
   viewBox="0 0 664.70269 269.40669"
   sodipodi:docname="cartón.svg"
   inkscape:version="1.4.4 (dcaf3e7d9e, 2026-05-05)"
   xmlns:inkscape="http://www.inkscape.org/namespaces/inkscape"
   xmlns:sodipodi="http://sodipodi.sourceforge.net/DTD/sodipodi-0.dtd"
   xmlns="http://www.w3.org/2000/svg"
   xmlns:svg="http://www.w3.org/2000/svg">
  <defs
     id="defs1" />
  <sodipodi:namedview
     id="namedview1"
     pagecolor="#ffffff"
     bordercolor="#000000"
     borderopacity="0.25"
     inkscape:showpageshadow="2"
     inkscape:pageopacity="0.0"
     inkscape:pagecheckerboard="0"
     inkscape:deskcolor="#d1d1d1"
     inkscape:zoom="2.5690626"
     inkscape:cx="328.13525"
     inkscape:cy="185.08697"
     inkscape:window-width="2560"
     inkscape:window-height="1416"
     inkscape:window-x="0"
     inkscape:window-y="0"
     inkscape:window-maximized="1"
     inkscape:current-layer="g1">
    <inkscape:page
       x="0"
       y="0"
       width="664.7027"
       height="269.40668"
       id="page2"
       margin="0"
       bleed="0" />
  </sodipodi:namedview>
  <g
     id="g1"
     inkscape:groupmode="layer"
     inkscape:label="1"
     transform="translate(-53.345273,-112.21839)">
    <path
       id="path3"
       d="M 48.813,757.726 H 538.536 V 709.781 H 48.813 Z"
       style="fill:#e00000;fill-opacity:1;fill-rule:nonzero;stroke:none"
       transform="matrix(1.3333333,0,0,-1.3333333,0,1122.5197)" />
    <path
       id="path4"
       d="m 497.441,108.137 h 6.848"
       style="fill:none;stroke:#800000;stroke-width:5.47942;stroke-linecap:butt;stroke-linejoin:miter;stroke-miterlimit:4;stroke-dasharray:none;stroke-opacity:1"
       transform="scale(1.3333333)" />
    <path
       id="path5"
       d="M 72.785,89.301 H 490.59 c 3.797,0 6.851,3.054 6.851,6.847 v 23.973 c 0,3.797 -3.054,6.852 -6.851,6.852 H 72.785 c -3.793,0 -6.847,-3.055 -6.847,-6.852 V 96.148 c 0,-3.793 3.054,-6.847 6.847,-6.847 z"
       style="fill:#800000;fill-opacity:1;fill-rule:nonzero;stroke:#800000;stroke-width:3.42463;stroke-linecap:butt;stroke-linejoin:miter;stroke-miterlimit:4;stroke-dasharray:none;stroke-opacity:1"
       transform="scale(1.3333333)" />
    <path
       id="path6"
       d="m 72.785,752.589 h 23.973 c 3.797,0 6.851,-3.055 6.851,-6.848 v -23.972 c 0,-3.797 -3.054,-6.852 -6.851,-6.852 H 72.785 c -3.793,0 -6.847,3.055 -6.847,6.852 v 23.972 c 0,3.793 3.054,6.848 6.847,6.848 z"
       style="fill:#ffd0d0;fill-opacity:1;fill-rule:nonzero;stroke:none"
       transform="matrix(1.3333333,0,0,-1.3333333,0,1122.5197)"
       inkscape:label="panel_red_2" />
    <path
       id="path7"
       d="m 112.168,752.589 h 23.973 c 3.797,0 6.851,-3.055 6.851,-6.848 v -23.972 c 0,-3.797 -3.054,-6.852 -6.851,-6.852 h -23.973 c -3.793,0 -6.848,3.055 -6.848,6.852 v 23.972 c 0,3.793 3.055,6.848 6.848,6.848 z"
       style="fill:#ffd0d0;fill-opacity:1;fill-rule:nonzero;stroke:none"
       transform="matrix(1.3333333,0,0,-1.3333333,0,1122.5197)"
       inkscape:label="panel_red_3" />
    <path
       id="path8"
       d="m 151.551,752.589 h 23.972 c 3.797,0 6.852,-3.055 6.852,-6.848 v -23.972 c 0,-3.797 -3.055,-6.852 -6.852,-6.852 h -23.972 c -3.793,0 -6.848,3.055 -6.848,6.852 v 23.972 c 0,3.793 3.055,6.848 6.848,6.848 z"
       style="fill:#ffd0d0;fill-opacity:1;fill-rule:nonzero;stroke:none"
       transform="matrix(1.3333333,0,0,-1.3333333,0,1122.5197)"
       inkscape:label="panel_red_4" />
    <path
       id="path9"
       d="m 190.938,752.589 h 23.972 c 3.793,0 6.848,-3.055 6.848,-6.848 v -23.972 c 0,-3.797 -3.055,-6.852 -6.848,-6.852 h -23.972 c -3.797,0 -6.852,3.055 -6.852,6.852 v 23.972 c 0,3.793 3.055,6.848 6.852,6.848 z"
       style="fill:#ffd0d0;fill-opacity:1;fill-rule:nonzero;stroke:none"
       transform="matrix(1.3333333,0,0,-1.3333333,0,1122.5197)"
       inkscape:label="panel_red_5" />
    <path
       id="path10"
       d="m 230.32,752.589 h 23.973 c 3.793,0 6.848,-3.055 6.848,-6.848 v -23.972 c 0,-3.797 -3.055,-6.852 -6.848,-6.852 H 230.32 c -3.797,0 -6.851,3.055 -6.851,6.852 v 23.972 c 0,3.793 3.054,6.848 6.851,6.848 z"
       style="fill:#ffd0d0;fill-opacity:1;fill-rule:nonzero;stroke:none"
       transform="matrix(1.3333333,0,0,-1.3333333,0,1122.5197)"
       inkscape:label="panel_red_6" />
    <path
       id="path11"
       d="m 269.703,752.589 h 23.973 c 3.793,0 6.847,-3.055 6.847,-6.848 v -23.972 c 0,-3.797 -3.054,-6.852 -6.847,-6.852 h -23.973 c -3.797,0 -6.851,3.055 -6.851,6.852 v 23.972 c 0,3.793 3.054,6.848 6.851,6.848 z"
       style="fill:#ffd0d0;fill-opacity:1;fill-rule:nonzero;stroke:none"
       transform="matrix(1.3333333,0,0,-1.3333333,0,1122.5197)"
       inkscape:label="panel_red_7" />
    <path
       id="path12"
       d="m 309.086,752.589 h 23.973 c 3.793,0 6.847,-3.055 6.847,-6.848 v -23.972 c 0,-3.797 -3.054,-6.852 -6.847,-6.852 h -23.973 c -3.793,0 -6.848,3.055 -6.848,6.852 v 23.972 c 0,3.793 3.055,6.848 6.848,6.848 z"
       style="fill:#ffd0d0;fill-opacity:1;fill-rule:nonzero;stroke:none"
       transform="matrix(1.3333333,0,0,-1.3333333,0,1122.5197)"
       inkscape:label="panel_red_8" />
    <path
       id="path13"
       d="m 348.469,752.589 h 23.972 c 3.793,0 6.848,-3.055 6.848,-6.848 v -23.972 c 0,-3.797 -3.055,-6.852 -6.848,-6.852 h -23.972 c -3.793,0 -6.848,3.055 -6.848,6.852 v 23.972 c 0,3.793 3.055,6.848 6.848,6.848 z"
       style="fill:#ffd0d0;fill-opacity:1;fill-rule:nonzero;stroke:none"
       transform="matrix(1.3333333,0,0,-1.3333333,0,1122.5197)"
       inkscape:label="panel_red_9" />
    <path
       id="path14"
       d="m 387.852,752.589 h 23.972 c 3.797,0 6.852,-3.055 6.852,-6.848 v -23.972 c 0,-3.797 -3.055,-6.852 -6.852,-6.852 h -23.972 c -3.793,0 -6.848,3.055 -6.848,6.852 v 23.972 c 0,3.793 3.055,6.848 6.848,6.848 z"
       style="fill:#ffd0d0;fill-opacity:1;fill-rule:nonzero;stroke:none"
       transform="matrix(1.3333333,0,0,-1.3333333,0,1122.5197)"
       inkscape:label="panel_red_10" />
    <path
       id="path15"
       d="m 427.234,752.589 h 23.973 c 3.797,0 6.852,-3.055 6.852,-6.848 v -23.972 c 0,-3.797 -3.055,-6.852 -6.852,-6.852 h -23.973 c -3.793,0 -6.847,3.055 -6.847,6.852 v 23.972 c 0,3.793 3.054,6.848 6.847,6.848 z"
       style="fill:#ffd0d0;fill-opacity:1;fill-rule:nonzero;stroke:none"
       transform="matrix(1.3333333,0,0,-1.3333333,0,1122.5197)"
       inkscape:label="panel_red_11" />
    <path
       id="path16"
       d="m 466.617,752.589 h 23.973 c 3.797,0 6.851,-3.055 6.851,-6.848 v -23.972 c 0,-3.797 -3.054,-6.852 -6.851,-6.852 h -23.973 c -3.793,0 -6.847,3.055 -6.847,6.852 v 23.972 c 0,3.793 3.054,6.848 6.847,6.848 z"
       style="fill:#ffd0d0;fill-opacity:1;fill-rule:nonzero;stroke:none"
       transform="matrix(1.3333333,0,0,-1.3333333,0,1122.5197)"
       inkscape:label="panel_red_12" />
    <path
       id="path87"
       d="m 629.34765,133.48828 h 3.67187 v 18.53125 h 3.625 v 3.57813 h -12.125 v -3.57813 h 3.6875 v -12.9375 c -1.09376,1.13672 -2.32422,2.05469 -3.6875,2.75 v -4.29687 c 1.95702,-1.01953 3.56641,-2.36719 4.82813,-4.04688 z m 13.98828,7.92188 -4.375,-0.89063 c 0.70703,-4.78125 3.125,-7.17187 7.25,-7.17187 2.22656,0 3.92187,0.62109 5.07812,1.85937 1.16407,1.23047 1.75,2.74219 1.75,4.53125 0,1.84375 -0.64844,3.64844 -1.93751,5.40625 -1.28124,1.76172 -3.6953,3.82032 -7.23437,6.17188 h 9.46876 l -0.35939,4.28125 h -14.01561 v -4.28125 c 4.00781,-3.4375 6.50781,-5.86328 7.5,-7.28125 1,-1.41406 1.5,-2.76563 1.5,-4.04688 0,-1.8125 -0.68751,-2.71875 -2.06251,-2.71875 -0.82421,0 -1.42968,0.35938 -1.81249,1.07813 -0.375,0.71094 -0.625,1.73047 -0.75,3.0625 z"
       style="fill:#e00000;fill-opacity:1;fill-rule:nonzero;stroke:none;stroke-width:1.33333"
       aria-label="23456789101112"
       inkscape:label="numeros_red_12"
       sodipodi:nodetypes="ccccccccccccccscscccccccsscc" />
    <path
       id="path88"
       d="m 576.84374,133.48828 h 3.67187 v 18.53125 h 3.625 v 3.57813 h -12.125 v -3.57813 h 3.68751 v -12.9375 c -1.09376,1.13672 -2.32423,2.05469 -3.68751,2.75 v -4.29687 c 1.95704,-1.01953 3.56641,-2.36719 4.82813,-4.04688 z m 16.80078,0 h 3.67188 v 18.53125 h 3.625 v 3.57813 h -12.125 v -3.57813 h 3.68749 v -12.9375 c -1.09375,1.13672 -2.32421,2.05469 -3.68749,2.75 v -4.29687 c 1.95702,-1.01953 3.5664,-2.36719 4.82812,-4.04688 z"
       style="fill:#e00000;fill-opacity:1;fill-rule:nonzero;stroke:none;stroke-width:1.33333"
       aria-label="23456789101112"
       inkscape:label="numeros_red_11"
       sodipodi:nodetypes="cccccccccccccccccccccccc" />
    <path
       id="path89"
       d="m 524.33984,133.48828 h 3.67187 v 18.53125 h 3.625 v 3.57813 h -12.125 v -3.57813 h 3.6875 v -12.9375 c -1.09376,1.13672 -2.32422,2.05469 -3.6875,2.75 v -4.29687 c 1.95704,-1.01953 3.56641,-2.36719 4.82813,-4.04688 z m 24.4414,10.89063 c 0,3.96094 -0.57421,6.875 -1.71875,8.75 -1.13672,1.875 -3.00781,2.8125 -5.60937,2.8125 -2.68751,0 -4.57813,-0.96875 -5.67188,-2.90625 -1.09375,-1.94531 -1.64063,-4.64844 -1.64063,-8.10938 0,-3.97656 0.56642,-6.89843 1.70314,-8.76562 1.14452,-1.875 3.01561,-2.8125 5.60937,-2.8125 2.68749,0 4.57812,0.97656 5.67187,2.92187 1.10156,1.9375 1.65625,4.64063 1.65625,8.10938 z m -5.09375,0.25 c 0,-3.3125 -0.15234,-5.4375 -0.45313,-6.375 -0.29296,-0.9375 -0.88671,-1.40625 -1.78124,-1.40625 -0.80469,0 -1.38281,0.39844 -1.73437,1.1875 -0.34376,0.79297 -0.51563,2.99219 -0.51563,6.59375 0,3.5625 0.16405,5.75781 0.5,6.57812 0.34375,0.8125 0.92577,1.21875 1.75,1.21875 0.78905,0 1.35937,-0.3789 1.70312,-1.14062 0.35156,-0.76953 0.53125,-2.98828 0.53125,-6.65625 z"
       style="fill:#e00000;fill-opacity:1;fill-rule:nonzero;stroke:none;stroke-width:1.33333"
       aria-label="23456789101112"
       inkscape:label="numeros_red_10"
       sodipodi:nodetypes="ccccccccccccscscscscsscscscscs" />
    <path
       id="path90"
       d="m 473.5664,150.58203 4.20312,-0.8125 c 0.26953,1.78125 1.05079,2.67188 2.34375,2.67188 1.78906,0 2.6875,-2.08203 2.6875,-6.25 l -0.0156,-0.67188 c -0.85546,1.3125 -2.125,1.96875 -3.81249,1.96875 -1.90625,0 -3.3672,-0.72265 -4.375,-2.17187 -1.01172,-1.44531 -1.51563,-3.05469 -1.51563,-4.82813 0,-1.94531 0.57031,-3.625 1.71875,-5.03125 1.15625,-1.40625 2.89063,-2.10937 5.20312,-2.10937 2.03907,0 3.58204,0.54687 4.625,1.64062 1.05079,1.08594 1.75391,2.46485 2.10937,4.14063 0.36328,1.66797 0.54688,3.38281 0.54688,5.14062 0,7.78125 -2.46093,11.67188 -7.375,11.67188 -3.40625,0 -5.52344,-1.78516 -6.34374,-5.35938 z m 9.04687,-10.35937 c 0,-1.07031 -0.22656,-1.89844 -0.67187,-2.48438 -0.44923,-0.59375 -1.0586,-0.89062 -1.82813,-0.89062 -0.65624,0 -1.21875,0.28125 -1.6875,0.84375 -0.46093,0.55469 -0.6875,1.39062 -0.6875,2.51562 0,2.25 0.8125,3.375 2.4375,3.375 1.625,0 2.4375,-1.11718 2.4375,-3.35937 z"
       style="fill:#e00000;fill-opacity:1;fill-rule:nonzero;stroke:none;stroke-width:1.33333"
       aria-label="23456789101112"
       inkscape:label="numeros_red_9"
       sodipodi:nodetypes="ccsccscscsccssscscscsss" />
    <path
       id="path91"
       d="m 432.07812,143.64453 c 2.25782,1.32422 3.39063,3.21485 3.39063,5.67188 0,1.84375 -0.65235,3.41406 -1.95313,4.70312 -1.29296,1.28125 -3.19531,1.92188 -5.70312,1.92188 -2.41798,0 -4.22656,-0.5625 -5.42188,-1.6875 -1.1875,-1.125 -1.78126,-2.57813 -1.78126,-4.35938 0,-1.05078 0.24219,-1.98437 0.73439,-2.79687 0.5,-0.8125 1.44531,-1.57813 2.84375,-2.29688 -1.96875,-1.25 -2.95314,-2.96875 -2.95314,-5.15625 0,-1.71875 0.57814,-3.19531 1.73439,-4.4375 1.15624,-1.23828 2.90624,-1.85937 5.25,-1.85937 2.21875,0 3.87891,0.51562 4.98437,1.54687 1.11328,1.03125 1.67187,2.38672 1.67187,4.0625 0,2.04297 -0.93359,3.60547 -2.79687,4.6875 z m -2.90625,-1.45312 c 1.03907,-0.97656 1.56249,-1.98438 1.56249,-3.01563 0,-0.80078 -0.21484,-1.45312 -0.64061,-1.95312 -0.41797,-0.5 -1.01563,-0.75 -1.79688,-0.75 -0.75,0 -1.36719,0.23047 -1.84375,0.6875 -0.46876,0.44922 -0.70313,1.02344 -0.70313,1.71875 0,0.83594 0.36719,1.51172 1.10937,2.03125 0.75,0.52344 1.51954,0.94922 2.31251,1.28125 z m -2.21875,4.17187 c -1.39844,0.85547 -2.09376,1.92969 -2.09376,3.21875 0,0.91797 0.27344,1.65235 0.82814,2.20313 0.56249,0.55469 1.32812,0.82812 2.29686,0.82812 0.91407,0 1.64063,-0.25 2.17188,-0.75 0.53126,-0.50781 0.79688,-1.10937 0.79688,-1.79687 0,-0.57031 -0.22657,-1.13281 -0.67188,-1.6875 -0.43749,-0.5625 -1.54688,-1.23438 -3.32812,-2.01563 z"
       style="fill:#e00000;fill-opacity:1;fill-rule:nonzero;stroke:none;stroke-width:1.33333"
       aria-label="23456789101112"
       inkscape:label="numeros_red_8"
       sodipodi:nodetypes="cssscsccscscsccscscscccscscscc" />
    <path
       id="path92"
       d="m 369.40234,133.69141 h 13.01562 v 3.6875 c -3.49218,4.5 -5.26172,10.57422 -5.3125,18.21875 h -5.23438 c 0.082,-6.6875 2.22267,-12.5625 6.42188,-17.625 h -9.26562 z"
       style="fill:#e00000;fill-opacity:1;fill-rule:nonzero;stroke:none;stroke-width:1.33333"
       aria-label="23456789101112"
       inkscape:label="numeros_red_7"
       sodipodi:nodetypes="cccccccc" />
    <path
       id="path93"
       d="m 330.3828,139.17578 -3.90625,1.17188 c -0.35547,-2.33203 -1.26561,-3.5 -2.73437,-3.5 -0.92968,0 -1.64843,0.47656 -2.15624,1.42187 -0.51172,0.94922 -0.78907,2.94922 -0.82814,6 0.90626,-1.66406 2.24219,-2.5 4.01563,-2.5 1.61328,0 2.97265,0.61719 4.07812,1.84375 1.10157,1.23047 1.65625,2.90625 1.65625,5.03125 0,2.38672 -0.65234,4.19922 -1.95312,5.4375 -1.29297,1.24219 -2.94922,1.85938 -4.96874,1.85938 -4.84376,0 -7.26563,-3.67188 -7.26563,-11.01563 0,-3.96875 0.66405,-6.89062 2,-8.76562 1.34375,-1.875 3.19531,-2.8125 5.56249,-2.8125 1.71875,0 3.14063,0.49219 4.26563,1.46875 1.125,0.98047 1.86719,2.43359 2.23437,4.35937 z m -4.54686,9.46875 c 0,-2.23828 -0.79298,-3.35937 -2.375,-3.35937 -1.65626,0 -2.48439,1.23047 -2.48439,3.6875 0,1.16797 0.21876,2.03906 0.65625,2.60937 0.44532,0.57422 1.03516,0.85938 1.76563,0.85938 1.625,0 2.43751,-1.26563 2.43751,-3.79688 z"
       style="fill:#e00000;fill-opacity:1;fill-rule:nonzero;stroke:none;stroke-width:1.33333"
       aria-label="23456789101112"
       inkscape:label="numeros_red_6"
       sodipodi:nodetypes="ccsccscscsscsccssscss" />
    <path
       id="path94"
       d="m 264.97266,133.69141 h 11.71875 l -0.46875,4.28125 h -7.73439 l -0.28124,4.9375 c 0.91406,-1.25 2.16406,-1.875 3.75,-1.875 1.5625,0 2.92968,0.57422 4.10938,1.71875 1.18749,1.14844 1.78125,2.96484 1.78125,5.45312 0,2.55469 -0.6836,4.48047 -2.04688,5.78125 -1.35547,1.30469 -3.125,1.95313 -5.31251,1.95313 -2.03124,0 -3.70312,-0.5625 -5.01561,-1.6875 -1.30469,-1.125 -2.04688,-2.62891 -2.23439,-4.51563 l 4.375,-0.71875 c 0.25,2 1.19532,3 2.84376,3 1.8125,0 2.71875,-1.17968 2.71875,-3.54687 0,-1.05078 -0.24609,-1.89844 -0.73437,-2.54688 -0.48047,-0.64453 -1.16798,-0.96875 -2.06251,-0.96875 -1.17968,0 -1.98047,0.57032 -2.40624,1.70313 l -3.76563,-0.71875 z"
       style="fill:#e00000;fill-opacity:1;fill-rule:nonzero;stroke:none;stroke-width:1.33333"
       aria-label="23456789101112"
       inkscape:label="numeros_red_5"
       sodipodi:nodetypes="cccccscscscccsscsccc" />
    <path
       id="path95"
       d="m 217.90625,133.34766 h 5.23437 v 13.35937 h 2.45313 v 3.73438 h -2.45313 v 5.15625 h -4.8125 v -5.15625 h -7.89062 v -3.73438 z m 0.79687,13.60937 v -9.01562 l -4.85937,9.01562 z"
       style="fill:#e00000;fill-opacity:1;fill-rule:nonzero;stroke:none;stroke-width:1.33333"
       aria-label="23456789101112"
       inkscape:label="numeros_red_4"
       sodipodi:nodetypes="cccccccccccccccc" />
    <path
       id="path96"
       d="m 162.33984,139.76953 -4.1875,-0.78125 c 1.10157,-3.75781 3.50782,-5.64062 7.21875,-5.64062 2.03125,0 3.61328,0.52734 4.75,1.57812 1.14453,1.05469 1.71875,2.48438 1.71875,4.29688 0,2.3125 -1.08593,3.9375 -3.25,4.875 2.45703,0.78125 3.6875,2.52344 3.6875,5.21875 0,2.16797 -0.67969,3.8125 -2.03125,4.9375 -1.34375,1.125 -3.05859,1.6875 -5.14062,1.6875 -1.875,0 -3.50781,-0.48828 -4.89063,-1.46875 -1.375,-0.98828 -2.23047,-2.66016 -2.5625,-5.01563 l 4.25,-0.71875 c 0.21875,2.1875 1.17188,3.28125 2.85938,3.28125 0.78125,0 1.39844,-0.25781 1.85937,-0.78125 0.45703,-0.53125 0.6875,-1.28125 0.6875,-2.25 0,-1.98828 -1.12109,-2.98437 -3.35937,-2.98437 l -1.34375,0.0156 v -3.54687 h 1.34375 c 0.70703,0 1.26562,-0.0664 1.67187,-0.20313 0.41407,-0.13281 0.75782,-0.41406 1.03125,-0.84375 0.26953,-0.42578 0.40625,-0.98828 0.40625,-1.6875 0,-1.78125 -0.73437,-2.67187 -2.20312,-2.67187 -1.28125,0 -2.1211,0.90234 -2.51563,2.70312 z"
       style="fill:#e00000;fill-opacity:1;fill-rule:nonzero;stroke:none;stroke-width:1.33333"
       aria-label="23456789101112"
       inkscape:label="numeros_red_3"
       sodipodi:nodetypes="ccscscscscccscscccsccsssc" />
    <path
       id="path97"
       d="m 109.91406,141.41016 -4.375,-0.89063 c 0.70703,-4.78125 3.125,-7.17187 7.25,-7.17187 2.22657,0 3.92188,0.62109 5.07813,1.85937 1.16406,1.23047 1.75,2.74219 1.75,4.53125 0,1.84375 -0.64844,3.64844 -1.9375,5.40625 -1.28125,1.76172 -3.69531,3.82032 -7.23438,6.17188 h 9.46875 l -0.35937,4.28125 h -14.01563 v -4.28125 c 4.00782,-3.4375 6.50782,-5.86328 7.5,-7.28125 1,-1.41406 1.5,-2.76563 1.5,-4.04688 0,-1.8125 -0.6875,-2.71875 -2.0625,-2.71875 -0.82422,0 -1.42968,0.35938 -1.8125,1.07813 -0.375,0.71094 -0.625,1.73047 -0.75,3.0625 z"
       style="fill:#e00000;fill-opacity:1;fill-rule:nonzero;stroke:none;stroke-width:1.33333"
       aria-label="23456789101112"
       inkscape:label="numeros_red_2"
       sodipodi:nodetypes="ccscscccccccsscc" />
    <g
       id="g_lock_circle_red"
       inkscape:label="circle_red">
      <path
         id="path18"
         d="m 531.688,108.137 c 0,7.566 -6.133,13.699 -13.7,13.699 -7.566,0 -13.699,-6.133 -13.699,-13.699 0,-7.567 6.133,-13.699 13.699,-13.699 7.567,0 13.7,6.132 13.7,13.699 z"
         style="fill:#ffd0d0;fill-opacity:1;fill-rule:nonzero;stroke:#800000;stroke-width:1.36985;stroke-linecap:butt;stroke-linejoin:miter;stroke-miterlimit:4;stroke-dasharray:none;stroke-opacity:1"
         transform="scale(1.3333333)" />
    </g>
    <g
       id="g_unlock_red"
       inkscape:label="unlock_red">
      <path
         id="path19"
         d="m 514.605,739.073 9.938,-3.765 c 0.785,-0.297 1.184,-1.18 0.891,-1.981 l -2.782,-7.57 c -0.293,-0.797 -1.164,-1.199 -1.949,-0.902 l -9.937,3.765 c -0.786,0.297 -1.184,1.18 -0.891,1.981 l 2.781,7.57 c 0.293,0.797 1.16,1.199 1.949,0.902 z"
         style="fill:#800000;fill-opacity:1;fill-rule:nonzero;stroke:none"
         transform="matrix(1.3333333,0,0,-1.3333333,0,1122.5197)" />
      <path
         id="path20"
         d="m 519.273,731.968 c -0.293,-0.797 -1.168,-1.203 -1.949,-0.906 -0.785,0.297 -1.183,1.183 -0.89,1.98 0.293,0.797 1.164,1.203 1.949,0.906 0.781,-0.3 1.183,-1.183 0.89,-1.98 z"
         style="fill:#ffd0d0;fill-opacity:1;fill-rule:nonzero;stroke:none"
         transform="matrix(1.3333333,0,0,-1.3333333,0,1122.5197)" />
      <path
         id="path21"
         d="m 517.801,728.519 -2.571,0.922 2.614,3.23 z"
         style="fill:#ffd0d0;fill-opacity:1;fill-rule:nonzero;stroke:none"
         transform="matrix(1.3333333,0,0,-1.3333333,0,1122.5197)" />
      <path
         id="path22"
         d="m -736.284,-0.594 c 1.178,-0.161 0.801,1.515 0.27,1.969 -1.445,1.224 -3.508,0.031 -4.204,-1.426 -1.246,-2.606 0.594,-5.531 3.116,-6.439 2.8,-1.012 5.924,0.242 7.602,2.61"
         style="fill:none;stroke:#800000;stroke-width:1.8857;stroke-linecap:butt;stroke-linejoin:miter;stroke-miterlimit:4;stroke-dasharray:none;stroke-opacity:1"
         transform="matrix(-0.94222933,-0.193228,-0.265044,1.3333333,0,0)" />
    </g>
    <g
       id="g_lock_red"
       inkscape:label="lock_red"
       style="display:none">
      <path
         id="path19"
         d="m 514.605,739.073 9.938,-3.765 c 0.785,-0.297 1.184,-1.18 0.891,-1.981 l -2.782,-7.57 c -0.293,-0.797 -1.164,-1.199 -1.949,-0.902 l -9.937,3.765 c -0.786,0.297 -1.184,1.18 -0.891,1.981 l 2.781,7.57 c 0.293,0.797 1.16,1.199 1.949,0.902 z"
         style="fill:#800000;fill-opacity:1;fill-rule:nonzero;stroke:none"
         transform="matrix(1.3333333,0,0,-1.3333333,0,1122.5197)" />
      
    
      <path
         id="path30"
         d="m -736.284,-0.594 c 1.178,-0.161 0.801,1.515 0.27,1.969 -1.445,1.224 -3.508,0.031 -4.204,-1.426 -1.246,-2.606 0.594,-5.531 3.116,-6.439 2.88852,-0.9081752 6.2557,-0.2060725 7.98028,4.8868736"
         style="fill:none;stroke:#800000;stroke-width:1.8857;stroke-linecap:butt;stroke-linejoin:miter;stroke-miterlimit:4;stroke-dasharray:none;stroke-opacity:1"
         transform="matrix(-0.94222933,-0.193228,-0.265044,1.3333333,0,0)"
         sodipodi:nodetypes="ccccc" />
    </g>
    <path
       id="path23"
       d="m 40.766,130.948 -0.078,-17.845 15.496,8.852 z"
       style="fill:#000000;fill-opacity:1;fill-rule:nonzero;stroke:#ffffff;stroke-width:1.34794;stroke-linecap:butt;stroke-linejoin:miter;stroke-miterlimit:4;stroke-dasharray:none;stroke-opacity:1"
       transform="scale(1.3333333,1.1826)"
       inkscape:label="block_panel_red" />
    <path
       id="path24"
       d="M 48.813,706.359 H 538.536 V 658.414 H 48.813 Z"
       style="fill:#fdca00;fill-opacity:1;fill-rule:nonzero;stroke:none"
       transform="matrix(1.3333333,0,0,-1.3333333,0,1122.5197)" />
    <path
       id="path25"
       d="m 497.441,159.504 h 6.848"
       style="fill:none;stroke:#986601;stroke-width:5.47942;stroke-linecap:butt;stroke-linejoin:miter;stroke-miterlimit:4;stroke-dasharray:none;stroke-opacity:1"
       transform="scale(1.3333333)" />
    <path
       id="path26"
       d="M 72.785,140.672 H 490.59 c 3.797,0 6.851,3.055 6.851,6.848 v 23.972 c 0,3.793 -3.054,6.848 -6.851,6.848 H 72.785 c -3.793,0 -6.847,-3.055 -6.847,-6.848 V 147.52 c 0,-3.793 3.054,-6.848 6.847,-6.848 z"
       style="fill:#986600;fill-opacity:1;fill-rule:nonzero;stroke:#986600;stroke-width:3.42463;stroke-linecap:butt;stroke-linejoin:miter;stroke-miterlimit:4;stroke-dasharray:none;stroke-opacity:1"
       transform="scale(1.3333333)" />
    <path
       id="path27"
       d="m 72.785,701.218 h 23.973 c 3.797,0 6.851,-3.055 6.851,-6.848 v -23.972 c 0,-3.793 -3.054,-6.848 -6.851,-6.848 H 72.785 c -3.793,0 -6.847,3.055 -6.847,6.848 v 23.972 c 0,3.793 3.054,6.848 6.847,6.848 z"
       style="fill:#ffffd0;fill-opacity:1;fill-rule:nonzero;stroke:none"
       transform="matrix(1.3333333,0,0,-1.3333333,0,1122.5197)"
       inkscape:label="panel_yellow_2" />
    <path
       id="path28"
       d="m 112.168,701.218 h 23.973 c 3.797,0 6.851,-3.055 6.851,-6.848 v -23.972 c 0,-3.793 -3.054,-6.848 -6.851,-6.848 h -23.973 c -3.793,0 -6.848,3.055 -6.848,6.848 v 23.972 c 0,3.793 3.055,6.848 6.848,6.848 z"
       style="fill:#ffffd0;fill-opacity:1;fill-rule:nonzero;stroke:none"
       transform="matrix(1.3333333,0,0,-1.3333333,0,1122.5197)"
       inkscape:label="panel_yellow_3" />
    <path
       id="path29"
       d="m 151.551,701.218 h 23.972 c 3.797,0 6.852,-3.055 6.852,-6.848 v -23.972 c 0,-3.793 -3.055,-6.848 -6.852,-6.848 h -23.972 c -3.793,0 -6.848,3.055 -6.848,6.848 v 23.972 c 0,3.793 3.055,6.848 6.848,6.848 z"
       style="fill:#ffffd0;fill-opacity:1;fill-rule:nonzero;stroke:none"
       transform="matrix(1.3333333,0,0,-1.3333333,0,1122.5197)"
       inkscape:label="panel_yellow_4" />
    <path
       id="path30"
       d="m 190.938,701.218 h 23.972 c 3.793,0 6.848,-3.055 6.848,-6.848 v -23.972 c 0,-3.793 -3.055,-6.848 -6.848,-6.848 h -23.972 c -3.797,0 -6.852,3.055 -6.852,6.848 v 23.972 c 0,3.793 3.055,6.848 6.852,6.848 z"
       style="fill:#ffffd0;fill-opacity:1;fill-rule:nonzero;stroke:none"
       transform="matrix(1.3333333,0,0,-1.3333333,0,1122.5197)"
       inkscape:label="panel_yellow_5" />
    <path
       id="path31"
       d="m 230.32,701.218 h 23.973 c 3.793,0 6.848,-3.055 6.848,-6.848 v -23.972 c 0,-3.793 -3.055,-6.848 -6.848,-6.848 H 230.32 c -3.797,0 -6.851,3.055 -6.851,6.848 v 23.972 c 0,3.793 3.054,6.848 6.851,6.848 z"
       style="fill:#ffffd0;fill-opacity:1;fill-rule:nonzero;stroke:none"
       transform="matrix(1.3333333,0,0,-1.3333333,0,1122.5197)"
       inkscape:label="panel_yellow_6" />
    <path
       id="path32"
       d="m 269.703,701.218 h 23.973 c 3.793,0 6.847,-3.055 6.847,-6.848 v -23.972 c 0,-3.793 -3.054,-6.848 -6.847,-6.848 h -23.973 c -3.797,0 -6.851,3.055 -6.851,6.848 v 23.972 c 0,3.793 3.054,6.848 6.851,6.848 z"
       style="fill:#ffffd0;fill-opacity:1;fill-rule:nonzero;stroke:none"
       transform="matrix(1.3333333,0,0,-1.3333333,0,1122.5197)"
       inkscape:label="panel_yellow_7" />
    <path
       id="path33"
       d="m 309.086,701.218 h 23.973 c 3.793,0 6.847,-3.055 6.847,-6.848 v -23.972 c 0,-3.793 -3.054,-6.848 -6.847,-6.848 h -23.973 c -3.793,0 -6.848,3.055 -6.848,6.848 v 23.972 c 0,3.793 3.055,6.848 6.848,6.848 z"
       style="fill:#ffffd0;fill-opacity:1;fill-rule:nonzero;stroke:none"
       transform="matrix(1.3333333,0,0,-1.3333333,0,1122.5197)"
       inkscape:label="panel_yellow_8" />
    <path
       id="path34"
       d="m 348.469,701.218 h 23.972 c 3.793,0 6.848,-3.055 6.848,-6.848 v -23.972 c 0,-3.793 -3.055,-6.848 -6.848,-6.848 h -23.972 c -3.793,0 -6.848,3.055 -6.848,6.848 v 23.972 c 0,3.793 3.055,6.848 6.848,6.848 z"
       style="fill:#ffffd0;fill-opacity:1;fill-rule:nonzero;stroke:none"
       transform="matrix(1.3333333,0,0,-1.3333333,0,1122.5197)"
       inkscape:label="panel_yellow_9" />
    <path
       id="path35"
       d="m 387.852,701.218 h 23.972 c 3.797,0 6.852,-3.055 6.852,-6.848 v -23.972 c 0,-3.793 -3.055,-6.848 -6.852,-6.848 h -23.972 c -3.793,0 -6.848,3.055 -6.848,6.848 v 23.972 c 0,3.793 3.055,6.848 6.848,6.848 z"
       style="fill:#ffffd0;fill-opacity:1;fill-rule:nonzero;stroke:none"
       transform="matrix(1.3333333,0,0,-1.3333333,0,1122.5197)"
       inkscape:label="panel_yellow_10" />
    <path
       id="path36"
       d="m 427.234,701.218 h 23.973 c 3.797,0 6.852,-3.055 6.852,-6.848 v -23.972 c 0,-3.793 -3.055,-6.848 -6.852,-6.848 h -23.973 c -3.793,0 -6.847,3.055 -6.847,6.848 v 23.972 c 0,3.793 3.054,6.848 6.847,6.848 z"
       style="fill:#ffffd0;fill-opacity:1;fill-rule:nonzero;stroke:none"
       transform="matrix(1.3333333,0,0,-1.3333333,0,1122.5197)"
       inkscape:label="panel_yellow_11" />
    <path
       id="path37"
       d="m 466.617,701.218 h 23.973 c 3.797,0 6.851,-3.055 6.851,-6.848 v -23.972 c 0,-3.793 -3.054,-6.848 -6.851,-6.848 h -23.973 c -3.793,0 -6.847,3.055 -6.847,6.848 v 23.972 c 0,3.793 3.054,6.848 6.847,6.848 z"
       style="fill:#ffffd0;fill-opacity:1;fill-rule:nonzero;stroke:none"
       transform="matrix(1.3333333,0,0,-1.3333333,0,1122.5197)"
       inkscape:label="panel_yellow_12" />
    <path
       id="path98"
       d="m 629.34765,201.69001 h 3.67187 v 18.53125 h 3.625 v 3.57813 h -12.125 v -3.57813 h 3.6875 v -12.9375 c -1.09376,1.13672 -2.32422,2.05469 -3.6875,2.75 v -4.29687 c 1.95702,-1.01953 3.56641,-2.36719 4.82813,-4.04688 z m 13.98828,7.92188 -4.375,-0.89063 c 0.70703,-4.78125 3.125,-7.17187 7.25,-7.17187 2.22656,0 3.92187,0.62109 5.07812,1.85937 1.16407,1.23047 1.75,2.74219 1.75,4.53125 0,1.84375 -0.64844,3.64844 -1.93751,5.40625 -1.28124,1.76172 -3.6953,3.82032 -7.23437,6.17188 h 9.46876 l -0.35939,4.28125 h -14.01561 v -4.28125 c 4.00781,-3.4375 6.50781,-5.86328 7.5,-7.28125 1,-1.41406 1.5,-2.76563 1.5,-4.04688 0,-1.8125 -0.68751,-2.71875 -2.06251,-2.71875 -0.82421,0 -1.42968,0.35938 -1.81249,1.07813 -0.375,0.71094 -0.625,1.73047 -0.75,3.0625 z"
       style="fill:#fdca00;fill-opacity:1;fill-rule:nonzero;stroke:none;stroke-width:1.33333"
       aria-label="23456789101112"
       inkscape:label="numeros_yellow_12"
       sodipodi:nodetypes="ccccccccccccccscscccccccsscc" />
    <path
       id="path99"
       d="m 576.84374,201.6197 h 3.67187 v 18.53125 h 3.625 v 3.57813 h -12.125 v -3.57813 h 3.68751 v -12.9375 c -1.09376,1.13672 -2.32423,2.05469 -3.68751,2.75 v -4.29687 c 1.95704,-1.01953 3.56641,-2.36719 4.82813,-4.04688 z m 16.80078,0 h 3.67188 v 18.53125 h 3.625 v 3.57813 h -12.125 v -3.57813 h 3.68749 v -12.9375 c -1.09375,1.13672 -2.32421,2.05469 -3.68749,2.75 v -4.29687 c 1.95702,-1.01953 3.5664,-2.36719 4.82812,-4.04688 z"
       style="fill:#fdca00;fill-opacity:1;fill-rule:nonzero;stroke:none;stroke-width:1.33333"
       aria-label="23456789101112"
       inkscape:label="numeros_yellow_11"
       sodipodi:nodetypes="cccccccccccccccccccccccc" />
    <path
       id="path100"
       d="m 524.33984,201.51813 h 3.67187 v 18.53125 h 3.625 v 3.57813 h -12.125 v -3.57813 h 3.6875 v -12.9375 c -1.09376,1.13672 -2.32422,2.05469 -3.6875,2.75 v -4.29687 c 1.95704,-1.01953 3.56641,-2.36719 4.82813,-4.04688 z m 24.4414,10.89063 c 0,3.96094 -0.57421,6.875 -1.71875,8.75 -1.13672,1.875 -3.00781,2.8125 -5.60937,2.8125 -2.68751,0 -4.57813,-0.96875 -5.67188,-2.90625 -1.09375,-1.94531 -1.64063,-4.64844 -1.64063,-8.10938 0,-3.97656 0.56642,-6.89843 1.70314,-8.76562 1.14452,-1.875 3.01561,-2.8125 5.60937,-2.8125 2.68749,0 4.57812,0.97656 5.67187,2.92187 1.10156,1.9375 1.65625,4.64063 1.65625,8.10938 z m -5.09375,0.25 c 0,-3.3125 -0.15234,-5.4375 -0.45313,-6.375 -0.29296,-0.9375 -0.88671,-1.40625 -1.78124,-1.40625 -0.80469,0 -1.38281,0.39844 -1.73437,1.1875 -0.34376,0.79297 -0.51563,2.99219 -0.51563,6.59375 0,3.5625 0.16405,5.75781 0.5,6.57812 0.34375,0.8125 0.92577,1.21875 1.75,1.21875 0.78905,0 1.35937,-0.3789 1.70312,-1.14062 0.35156,-0.76953 0.53125,-2.98828 0.53125,-6.65625 z"
       style="fill:#fdca00;fill-opacity:1;fill-rule:nonzero;stroke:none;stroke-width:1.33333"
       aria-label="23456789101112"
       inkscape:label="numeros_yellow_10"
       sodipodi:nodetypes="ccccccccccccscscscscsscscscscs" />
    <path
       id="path101"
       d="m 473.5664,218.61188 4.20312,-0.8125 c 0.26953,1.78125 1.05079,2.67188 2.34375,2.67188 1.78906,0 2.6875,-2.08203 2.6875,-6.25 l -0.0156,-0.67188 c -0.85546,1.3125 -2.125,1.96875 -3.81249,1.96875 -1.90625,0 -3.3672,-0.72265 -4.375,-2.17187 -1.01172,-1.44531 -1.51563,-3.05469 -1.51563,-4.82813 0,-1.94531 0.57031,-3.625 1.71875,-5.03125 1.15625,-1.40625 2.89063,-2.10937 5.20312,-2.10937 2.03907,0 3.58204,0.54687 4.625,1.64062 1.05079,1.08594 1.75391,2.46485 2.10937,4.14063 0.36328,1.66797 0.54688,3.38281 0.54688,5.14062 0,7.78125 -2.46093,11.67188 -7.375,11.67188 -3.40625,0 -5.52344,-1.78516 -6.34374,-5.35938 z m 9.04687,-10.35937 c 0,-1.07031 -0.22656,-1.89844 -0.67187,-2.48438 -0.44923,-0.59375 -1.0586,-0.89062 -1.82813,-0.89062 -0.65624,0 -1.21875,0.28125 -1.6875,0.84375 -0.46093,0.55469 -0.6875,1.39062 -0.6875,2.51562 0,2.25 0.8125,3.375 2.4375,3.375 1.625,0 2.4375,-1.11718 2.4375,-3.35937 z"
       style="fill:#fdca00;fill-opacity:1;fill-rule:nonzero;stroke:none;stroke-width:1.33333"
       aria-label="23456789101112"
       inkscape:label="numeros_yellow_9"
       sodipodi:nodetypes="ccsccscscsccssscscscsss" />
    <path
       id="path102"
       d="m 432.07812,211.67438 c 2.25782,1.32422 3.39063,3.21485 3.39063,5.67188 0,1.84375 -0.65235,3.41406 -1.95313,4.70312 -1.29296,1.28125 -3.19531,1.92188 -5.70312,1.92188 -2.41798,0 -4.22656,-0.5625 -5.42188,-1.6875 -1.1875,-1.125 -1.78126,-2.57813 -1.78126,-4.35938 0,-1.05078 0.24219,-1.98437 0.73439,-2.79687 0.5,-0.8125 1.44531,-1.57813 2.84375,-2.29688 -1.96875,-1.25 -2.95314,-2.96875 -2.95314,-5.15625 0,-1.71875 0.57814,-3.19531 1.73439,-4.4375 1.15624,-1.23828 2.90624,-1.85937 5.25,-1.85937 2.21875,0 3.87891,0.51562 4.98437,1.54687 1.11328,1.03125 1.67187,2.38672 1.67187,4.0625 0,2.04297 -0.93359,3.60547 -2.79687,4.6875 z m -2.90625,-1.45312 c 1.03907,-0.97656 1.56249,-1.98438 1.56249,-3.01563 0,-0.80078 -0.21484,-1.45312 -0.64061,-1.95312 -0.41797,-0.5 -1.01563,-0.75 -1.79688,-0.75 -0.75,0 -1.36719,0.23047 -1.84375,0.6875 -0.46876,0.44922 -0.70313,1.02344 -0.70313,1.71875 0,0.83594 0.36719,1.51172 1.10937,2.03125 0.75,0.52344 1.51954,0.94922 2.31251,1.28125 z m -2.21875,4.17187 c -1.39844,0.85547 -2.09376,1.92969 -2.09376,3.21875 0,0.91797 0.27344,1.65235 0.82814,2.20313 0.56249,0.55469 1.32812,0.82812 2.29686,0.82812 0.91407,0 1.64063,-0.25 2.17188,-0.75 0.53126,-0.50781 0.79688,-1.10937 0.79688,-1.79687 0,-0.57031 -0.22657,-1.13281 -0.67188,-1.6875 -0.43749,-0.5625 -1.54688,-1.23438 -3.32812,-2.01563 z"
       style="fill:#fdca00;fill-opacity:1;fill-rule:nonzero;stroke:none;stroke-width:1.33333"
       aria-label="23456789101112"
       inkscape:label="numeros_yellow_8"
       sodipodi:nodetypes="cssscsccscscsccscscscccscscscc" />
    <path
       id="path103"
       d="m 369.40234,201.72126 h 13.01562 v 3.6875 c -3.49218,4.5 -5.26172,10.57422 -5.3125,18.21875 h -5.23438 c 0.082,-6.6875 2.22267,-12.5625 6.42188,-17.625 h -9.26562 z"
       style="fill:#fdca00;fill-opacity:1;fill-rule:nonzero;stroke:none;stroke-width:1.33333"
       aria-label="23456789101112"
       inkscape:label="numeros_yellow_7"
       sodipodi:nodetypes="cccccccc" />
    <path
       id="path104"
       d="m 330.3828,207.20563 -3.90625,1.17188 c -0.35547,-2.33203 -1.26561,-3.5 -2.73437,-3.5 -0.92968,0 -1.64843,0.47656 -2.15624,1.42187 -0.51172,0.94922 -0.78907,2.94922 -0.82814,6 0.90626,-1.66406 2.24219,-2.5 4.01563,-2.5 1.61328,0 2.97265,0.61719 4.07812,1.84375 1.10157,1.23047 1.65625,2.90625 1.65625,5.03125 0,2.38672 -0.65234,4.19922 -1.95312,5.4375 -1.29297,1.24219 -2.94922,1.85938 -4.96874,1.85938 -4.84376,0 -7.26563,-3.67188 -7.26563,-11.01563 0,-3.96875 0.66405,-6.89062 2,-8.76562 1.34375,-1.875 3.19531,-2.8125 5.56249,-2.8125 1.71875,0 3.14063,0.49219 4.26563,1.46875 1.125,0.98047 1.86719,2.43359 2.23437,4.35937 z m -4.54686,9.46875 c 0,-2.23828 -0.79298,-3.35937 -2.375,-3.35937 -1.65626,0 -2.48439,1.23047 -2.48439,3.6875 0,1.16797 0.21876,2.03906 0.65625,2.60937 0.44532,0.57422 1.03516,0.85938 1.76563,0.85938 1.625,0 2.43751,-1.26563 2.43751,-3.79688 z"
       style="fill:#fdca00;fill-opacity:1;fill-rule:nonzero;stroke:none;stroke-width:1.33333"
       aria-label="23456789101112"
       inkscape:label="numeros_yellow_6"
       sodipodi:nodetypes="ccsccscscsscsccssscss" />
    <path
       id="path105"
       d="m 264.97266,201.54939 h 11.71875 l -0.46875,4.28125 h -7.73439 l -0.28124,4.9375 c 0.91406,-1.25 2.16406,-1.875 3.75,-1.875 1.5625,0 2.92968,0.57422 4.10938,1.71875 1.18749,1.14844 1.78125,2.96484 1.78125,5.45312 0,2.55469 -0.6836,4.48047 -2.04688,5.78125 -1.35547,1.30469 -3.125,1.95313 -5.31251,1.95313 -2.03124,0 -3.70312,-0.5625 -5.01561,-1.6875 -1.30469,-1.125 -2.04688,-2.62891 -2.23439,-4.51563 l 4.375,-0.71875 c 0.25,2 1.19532,3 2.84376,3 1.8125,0 2.71875,-1.17968 2.71875,-3.54687 0,-1.05078 -0.24609,-1.89844 -0.73437,-2.54688 -0.48047,-0.64453 -1.16798,-0.96875 -2.06251,-0.96875 -1.17968,0 -1.98047,0.57032 -2.40624,1.70313 l -3.76563,-0.71875 z"
       style="fill:#fdca00;fill-opacity:1;fill-rule:nonzero;stroke:none;stroke-width:1.33333"
       aria-label="23456789101112"
       inkscape:label="numeros_yellow_5"
       sodipodi:nodetypes="cccccscscscccsscsccc" />
    <path
       id="path106"
       d="m 217.90625,201.54939 h 5.23437 v 13.35937 h 2.45313 v 3.73438 h -2.45313 v 5.15625 h -4.8125 v -5.15625 h -7.89062 v -3.73438 z m 0.79687,13.60937 v -9.01562 l -4.85937,9.01562 z"
       style="fill:#fdca00;fill-opacity:1;fill-rule:nonzero;stroke:none;stroke-width:1.33333"
       aria-label="23456789101112"
       inkscape:label="numeros_yellow_4"
       sodipodi:nodetypes="cccccccccccccccc" />
    <path
       id="path107"
       d="m 162.33984,207.79938 -4.1875,-0.78125 c 1.10157,-3.75781 3.50782,-5.64062 7.21875,-5.64062 2.03125,0 3.61328,0.52734 4.75,1.57812 1.14453,1.05469 1.71875,2.48438 1.71875,4.29688 0,2.3125 -1.08593,3.9375 -3.25,4.875 2.45703,0.78125 3.6875,2.52344 3.6875,5.21875 0,2.16797 -0.67969,3.8125 -2.03125,4.9375 -1.34375,1.125 -3.05859,1.6875 -5.14062,1.6875 -1.875,0 -3.50781,-0.48828 -4.89063,-1.46875 -1.375,-0.98828 -2.23047,-2.66016 -2.5625,-5.01563 l 4.25,-0.71875 c 0.21875,2.1875 1.17188,3.28125 2.85938,3.28125 0.78125,0 1.39844,-0.25781 1.85937,-0.78125 0.45703,-0.53125 0.6875,-1.28125 0.6875,-2.25 0,-1.98828 -1.12109,-2.98437 -3.35937,-2.98437 l -1.34375,0.0156 v -3.54687 h 1.34375 c 0.70703,0 1.26562,-0.0664 1.67187,-0.20313 0.41407,-0.13281 0.75782,-0.41406 1.03125,-0.84375 0.26953,-0.42578 0.40625,-0.98828 0.40625,-1.6875 0,-1.78125 -0.73437,-2.67187 -2.20312,-2.67187 -1.28125,0 -2.1211,0.90234 -2.51563,2.70312 z"
       style="fill:#fdca00;fill-opacity:1;fill-rule:nonzero;stroke:none;stroke-width:1.33333"
       aria-label="23456789101112"
       inkscape:label="numeros_yellow_3"
       sodipodi:nodetypes="ccscscscscccscscccsccsssc" />
    <path
       id="path108"
       d="m 109.91406,209.61189 -4.375,-0.89063 c 0.70703,-4.78125 3.125,-7.17187 7.25,-7.17187 2.22657,0 3.92188,0.62109 5.07813,1.85937 1.16406,1.23047 1.75,2.74219 1.75,4.53125 0,1.84375 -0.64844,3.64844 -1.9375,5.40625 -1.28125,1.76172 -3.69531,3.82032 -7.23438,6.17188 h 9.46875 l -0.35937,4.28125 h -14.01563 v -4.28125 c 4.00782,-3.4375 6.50782,-5.86328 7.5,-7.28125 1,-1.41406 1.5,-2.76563 1.5,-4.04688 0,-1.8125 -0.6875,-2.71875 -2.0625,-2.71875 -0.82422,0 -1.42968,0.35938 -1.8125,1.07813 -0.375,0.71094 -0.625,1.73047 -0.75,3.0625 z"
       style="fill:#fdca00;fill-opacity:1;fill-rule:nonzero;stroke:none;stroke-width:1.33333"
       aria-label="23456789101112"
       inkscape:label="numeros_yellow_2"
       sodipodi:nodetypes="ccscscccccccsscc" />
    <g
       id="g_lock_circle_yellow"
       inkscape:label="circle_yellow">
      <path
         id="path39"
         d="m 531.688,159.504 c 0,7.566 -6.133,13.699 -13.7,13.699 -7.566,0 -13.699,-6.133 -13.699,-13.699 0,-7.563 6.133,-13.695 13.699,-13.695 7.567,0 13.7,6.132 13.7,13.695 z"
         style="fill:#ffffd0;fill-opacity:1;fill-rule:nonzero;stroke:#986600;stroke-width:1.36985;stroke-linecap:butt;stroke-linejoin:miter;stroke-miterlimit:4;stroke-dasharray:none;stroke-opacity:1"
         transform="scale(1.3333333)" />
    </g>
    <g
       id="g_unlock_yellow"
       inkscape:label="unlock_yellow">
      <path
         id="path40"
         d="m 514.605,687.702 9.938,-3.761 c 0.785,-0.301 1.184,-1.184 0.891,-1.981 l -2.782,-7.57 c -0.293,-0.801 -1.164,-1.203 -1.949,-0.906 l -9.937,3.765 c -0.786,0.297 -1.184,1.184 -0.891,1.981 l 2.781,7.57 c 0.293,0.797 1.16,1.203 1.949,0.902 z"
         style="fill:#986600;fill-opacity:1;fill-rule:nonzero;stroke:none"
         transform="matrix(1.3333333,0,0,-1.3333333,0,1122.5197)" />
      <path
         id="path41"
         d="m 519.273,680.597 c -0.293,-0.797 -1.168,-1.199 -1.949,-0.903 -0.785,0.297 -1.183,1.184 -0.89,1.977 0.293,0.797 1.164,1.203 1.949,0.906 0.781,-0.297 1.183,-1.183 0.89,-1.98 z"
         style="fill:#ffffd0;fill-opacity:1;fill-rule:nonzero;stroke:none"
         transform="matrix(1.3333333,0,0,-1.3333333,0,1122.5197)" />
      <path
         id="path42"
         d="m 517.801,677.148 -2.571,0.921 2.614,3.231 z"
         style="fill:#ffffd0;fill-opacity:1;fill-rule:nonzero;stroke:none"
         transform="matrix(1.3333333,0,0,-1.3333333,0,1122.5197)" />
      <path
         id="path43"
         d="m -750.169,48.765 c 1.18,-0.165 0.802,1.515 0.271,1.965 -1.445,1.228 -3.508,0.035 -4.204,-1.422 -1.246,-2.606 0.594,-5.531 3.117,-6.442 2.798,-1.009 5.924,0.241 7.601,2.609"
         style="fill:none;stroke:#986600;stroke-width:1.8857;stroke-linecap:butt;stroke-linejoin:miter;stroke-miterlimit:4;stroke-dasharray:none;stroke-opacity:1"
         transform="matrix(-0.94222933,-0.193228,-0.265044,1.3333333,0,0)" />
    </g>
    <g
       id="g_lock_yellow"
       inkscape:label="lock_yellow"
       style="display:none">
      <path
         id="path40"
         d="m 514.605,687.702 9.938,-3.761 c 0.785,-0.301 1.184,-1.184 0.891,-1.981 l -2.782,-7.57 c -0.293,-0.801 -1.164,-1.203 -1.949,-0.906 l -9.937,3.765 c -0.786,0.297 -1.184,1.184 -0.891,1.981 l 2.781,7.57 c 0.293,0.797 1.16,1.203 1.949,0.902 z"
         style="fill:#986600;fill-opacity:1;fill-rule:nonzero;stroke:none"
         transform="matrix(1.3333333,0,0,-1.3333333,0,1122.5197)" />
      <path
         id="path35"
         d="m -750.169,48.765 c 1.18,-0.165 0.802,1.515 0.271,1.965 -1.445,1.228 -3.508,0.035 -4.204,-1.422 -1.246,-2.606 0.594,-5.531 3.117,-6.442 2.798,-1.009 6.37875,-0.0081 7.99027,4.872283"
         style="fill:none;stroke:#986600;stroke-width:1.8857;stroke-linecap:butt;stroke-linejoin:miter;stroke-miterlimit:4;stroke-dasharray:none;stroke-opacity:1"
         transform="matrix(-0.94222933,-0.193228,-0.265044,1.3333333,0,0)"
         sodipodi:nodetypes="ccccc" />
    </g>
    <path
       id="path44"
       d="m 40.766,188.867 -0.078,-17.85 15.496,8.857 z"
       style="fill:#000000;fill-opacity:1;fill-rule:nonzero;stroke:#ffffff;stroke-width:1.34794;stroke-linecap:butt;stroke-linejoin:miter;stroke-miterlimit:4;stroke-dasharray:none;stroke-opacity:1"
       transform="scale(1.3333333,1.1826)"
       inkscape:label="block_panel_yellow" />
    <path
       id="path45"
       d="M 48.813,654.987 H 538.536 V 607.042 H 48.813 Z"
       style="fill:#339900;fill-opacity:1;fill-rule:nonzero;stroke:none"
       transform="matrix(1.3333333,0,0,-1.3333333,0,1122.5197)" />
    <path
       id="path46"
       d="m 497.441,210.875 h 6.848"
       style="fill:none;stroke:#015a01;stroke-width:5.47942;stroke-linecap:butt;stroke-linejoin:miter;stroke-miterlimit:4;stroke-dasharray:none;stroke-opacity:1"
       transform="scale(1.3333333)" />
    <path
       id="path47"
       d="M 72.785,192.039 H 490.59 c 3.797,0 6.851,3.055 6.851,6.852 v 23.972 c 0,3.793 -3.054,6.848 -6.851,6.848 H 72.785 c -3.793,0 -6.847,-3.055 -6.847,-6.848 v -23.972 c 0,-3.797 3.054,-6.852 6.847,-6.852 z"
       style="fill:#015a01;fill-opacity:1;fill-rule:nonzero;stroke:#015a01;stroke-width:3.42463;stroke-linecap:butt;stroke-linejoin:miter;stroke-miterlimit:4;stroke-dasharray:none;stroke-opacity:1"
       transform="scale(1.3333333)" />
    <path
       id="path48"
       d="m 72.785,649.851 h 23.973 c 3.797,0 6.851,-3.055 6.851,-6.852 v -23.973 c 0,-3.792 -3.054,-6.847 -6.851,-6.847 H 72.785 c -3.793,0 -6.847,3.055 -6.847,6.847 v 23.973 c 0,3.797 3.054,6.852 6.847,6.852 z"
       style="fill:#f0fff0;fill-opacity:1;fill-rule:nonzero;stroke:none"
       transform="matrix(1.3333333,0,0,-1.3333333,0,1122.5197)"
       inkscape:label="panel_green_12" />
    <path
       id="path49"
       d="m 112.168,649.851 h 23.973 c 3.797,0 6.851,-3.055 6.851,-6.852 v -23.973 c 0,-3.792 -3.054,-6.847 -6.851,-6.847 h -23.973 c -3.793,0 -6.848,3.055 -6.848,6.847 v 23.973 c 0,3.797 3.055,6.852 6.848,6.852 z"
       style="fill:#f0fff0;fill-opacity:1;fill-rule:nonzero;stroke:none"
       transform="matrix(1.3333333,0,0,-1.3333333,0,1122.5197)"
       inkscape:label="panel_green_11" />
    <path
       id="path50"
       d="m 151.551,649.851 h 23.972 c 3.797,0 6.852,-3.055 6.852,-6.852 v -23.973 c 0,-3.792 -3.055,-6.847 -6.852,-6.847 h -23.972 c -3.793,0 -6.848,3.055 -6.848,6.847 v 23.973 c 0,3.797 3.055,6.852 6.848,6.852 z"
       style="fill:#f0fff0;fill-opacity:1;fill-rule:nonzero;stroke:none"
       transform="matrix(1.3333333,0,0,-1.3333333,0,1122.5197)"
       inkscape:label="panel_green_10" />
    <path
       id="path51"
       d="m 190.938,649.851 h 23.972 c 3.793,0 6.848,-3.055 6.848,-6.852 v -23.973 c 0,-3.792 -3.055,-6.847 -6.848,-6.847 h -23.972 c -3.797,0 -6.852,3.055 -6.852,6.847 v 23.973 c 0,3.797 3.055,6.852 6.852,6.852 z"
       style="fill:#f0fff0;fill-opacity:1;fill-rule:nonzero;stroke:none"
       transform="matrix(1.3333333,0,0,-1.3333333,0,1122.5197)"
       inkscape:label="panel_green_9" />
    <path
       id="path52"
       d="m 230.32,649.851 h 23.973 c 3.793,0 6.848,-3.055 6.848,-6.852 v -23.973 c 0,-3.792 -3.055,-6.847 -6.848,-6.847 H 230.32 c -3.797,0 -6.851,3.055 -6.851,6.847 v 23.973 c 0,3.797 3.054,6.852 6.851,6.852 z"
       style="fill:#f0fff0;fill-opacity:1;fill-rule:nonzero;stroke:none"
       transform="matrix(1.3333333,0,0,-1.3333333,0,1122.5197)"
       inkscape:label="panel_green_8" />
    <path
       id="path53"
       d="m 269.703,649.851 h 23.973 c 3.793,0 6.847,-3.055 6.847,-6.852 v -23.973 c 0,-3.792 -3.054,-6.847 -6.847,-6.847 h -23.973 c -3.797,0 -6.851,3.055 -6.851,6.847 v 23.973 c 0,3.797 3.054,6.852 6.851,6.852 z"
       style="fill:#f0fff0;fill-opacity:1;fill-rule:nonzero;stroke:none"
       transform="matrix(1.3333333,0,0,-1.3333333,0,1122.5197)"
       inkscape:label="panel_green_7" />
    <path
       id="path54"
       d="m 309.086,649.851 h 23.973 c 3.793,0 6.847,-3.055 6.847,-6.852 v -23.973 c 0,-3.792 -3.054,-6.847 -6.847,-6.847 h -23.973 c -3.793,0 -6.848,3.055 -6.848,6.847 v 23.973 c 0,3.797 3.055,6.852 6.848,6.852 z"
       style="fill:#f0fff0;fill-opacity:1;fill-rule:nonzero;stroke:none"
       transform="matrix(1.3333333,0,0,-1.3333333,0,1122.5197)"
       inkscape:label="panel_green_6" />
    <path
       id="path55"
       d="m 348.469,649.851 h 23.972 c 3.793,0 6.848,-3.055 6.848,-6.852 v -23.973 c 0,-3.792 -3.055,-6.847 -6.848,-6.847 h -23.972 c -3.793,0 -6.848,3.055 -6.848,6.847 v 23.973 c 0,3.797 3.055,6.852 6.848,6.852 z"
       style="fill:#f0fff0;fill-opacity:1;fill-rule:nonzero;stroke:none"
       transform="matrix(1.3333333,0,0,-1.3333333,0,1122.5197)"
       inkscape:label="panel_green_5" />
    <path
       id="path56"
       d="m 387.852,649.851 h 23.972 c 3.797,0 6.852,-3.055 6.852,-6.852 v -23.973 c 0,-3.792 -3.055,-6.847 -6.852,-6.847 h -23.972 c -3.793,0 -6.848,3.055 -6.848,6.847 v 23.973 c 0,3.797 3.055,6.852 6.848,6.852 z"
       style="fill:#f0fff0;fill-opacity:1;fill-rule:nonzero;stroke:none"
       transform="matrix(1.3333333,0,0,-1.3333333,0,1122.5197)"
       inkscape:label="panel_green_4" />
    <path
       id="path57"
       d="m 427.234,649.851 h 23.973 c 3.797,0 6.852,-3.055 6.852,-6.852 v -23.973 c 0,-3.792 -3.055,-6.847 -6.852,-6.847 h -23.973 c -3.793,0 -6.847,3.055 -6.847,6.847 v 23.973 c 0,3.797 3.054,6.852 6.847,6.852 z"
       style="fill:#f0fff0;fill-opacity:1;fill-rule:nonzero;stroke:none"
       transform="matrix(1.3333333,0,0,-1.3333333,0,1122.5197)"
       inkscape:label="panel_green_3" />
    <path
       id="path58"
       d="m 466.617,649.851 h 23.973 c 3.797,0 6.851,-3.055 6.851,-6.852 v -23.973 c 0,-3.792 -3.054,-6.847 -6.851,-6.847 h -23.973 c -3.793,0 -6.847,3.055 -6.847,6.847 v 23.973 c 0,3.797 3.054,6.852 6.847,6.852 z"
       style="fill:#f0fff0;fill-opacity:1;fill-rule:nonzero;stroke:none"
       transform="matrix(1.3333333,0,0,-1.3333333,0,1122.5197)"
       inkscape:label="panel_green_2" />
    <path
       id="path120"
       d="m 103.45125,270.18201 h 3.67187 v 18.53125 h 3.625 v 3.57813 H 98.623128 v -3.57813 h 3.687492 v -12.9375 c -1.09376,1.13672 -2.324217,2.05469 -3.687492,2.75 v -4.29687 c 1.957012,-1.01953 3.566402,-2.36719 4.828122,-4.04688 z m 13.98828,7.92188 -4.375,-0.89063 c 0.70703,-4.78125 3.125,-7.17187 7.25,-7.17187 2.22656,0 3.92187,0.62109 5.07812,1.85937 1.16407,1.23047 1.75,2.74219 1.75,4.53125 0,1.84375 -0.64844,3.64844 -1.93751,5.40625 -1.28124,1.76172 -3.6953,3.82032 -7.23437,6.17188 h 9.46876 l -0.35939,4.28125 h -14.01561 v -4.28125 c 4.00781,-3.4375 6.50781,-5.86328 7.5,-7.28125 1,-1.41406 1.5,-2.76563 1.5,-4.04688 0,-1.8125 -0.68751,-2.71875 -2.06251,-2.71875 -0.82421,0 -1.42968,0.35938 -1.81249,1.07813 -0.375,0.71094 -0.625,1.73047 -0.75,3.0625 z"
       style="fill:#339900;fill-opacity:1;fill-rule:nonzero;stroke:none;stroke-width:1.33333"
       aria-label="23456789101112"
       inkscape:label="numeros_green_12"
       sodipodi:nodetypes="ccccccccccccccscscccccccsscc" />
    <path
       id="path121"
       d="m 155.90656,270.1117 h 3.67187 v 18.53125 h 3.625 v 3.57813 h -12.125 v -3.57813 h 3.68751 v -12.9375 c -1.09376,1.13672 -2.32423,2.05469 -3.68751,2.75 v -4.29687 c 1.95704,-1.01953 3.56641,-2.36719 4.82813,-4.04688 z m 16.80078,0 h 3.67188 v 18.53125 h 3.625 v 3.57813 h -12.125 v -3.57813 h 3.68749 v -12.9375 c -1.09375,1.13672 -2.32421,2.05469 -3.68749,2.75 v -4.29687 c 1.95702,-1.01953 3.5664,-2.36719 4.82812,-4.04688 z"
       style="fill:#339900;fill-opacity:1;fill-rule:nonzero;stroke:none;stroke-width:1.33333"
       aria-label="23456789101112"
       inkscape:label="numeros_green_11"
       sodipodi:nodetypes="cccccccccccccccccccccccc" />
    <path
       id="path122"
       d="m 208.24536,270.01013 h 3.67187 v 18.53125 h 3.625 v 3.57813 h -12.125 v -3.57813 h 3.6875 v -12.9375 c -1.09376,1.13673 -2.32422,2.05469 -3.6875,2.75 v -4.29687 c 1.95704,-1.01952 3.56641,-2.36719 4.82813,-4.04688 z m 24.4414,10.89063 c 0,3.96094 -0.57421,6.875 -1.71875,8.75 -1.13672,1.875 -3.00781,2.8125 -5.60937,2.8125 -2.68751,0 -4.57813,-0.96875 -5.67188,-2.90625 -1.09375,-1.94531 -1.64063,-4.64844 -1.64063,-8.10938 0,-3.97656 0.56642,-6.89843 1.70314,-8.76562 1.14452,-1.875 3.01561,-2.8125 5.60937,-2.8125 2.68749,0 4.57812,0.97656 5.67187,2.92187 1.10156,1.9375 1.65625,4.64063 1.65625,8.10938 z m -5.09375,0.25 c 0,-3.3125 -0.15234,-5.4375 -0.45313,-6.375 -0.29296,-0.9375 -0.88671,-1.40625 -1.78124,-1.40625 -0.80469,0 -1.38281,0.39844 -1.73437,1.1875 -0.34376,0.79298 -0.51563,2.99219 -0.51563,6.59375 0,3.5625 0.16405,5.75781 0.5,6.57812 0.34375,0.8125 0.92577,1.21875 1.75,1.21875 0.78905,0 1.35937,-0.37889 1.70312,-1.14062 0.35156,-0.76952 0.53125,-2.98827 0.53125,-6.65625 z"
       style="fill:#339900;fill-opacity:1;fill-rule:nonzero;stroke:none;stroke-width:1.33333"
       aria-label="23456789101112"
       inkscape:label="numeros_green_10"
       sodipodi:nodetypes="ccccccccccccscscscscsscscscscs" />
    <path
       id="path123"
       d="m 263.94545,287.10388 4.20312,-0.8125 c 0.26953,1.78125 1.05079,2.67188 2.34375,2.67188 1.78906,0 2.6875,-2.08202 2.6875,-6.25 l -0.0156,-0.67188 c -0.85546,1.3125 -2.125,1.96875 -3.81249,1.96875 -1.90625,0 -3.3672,-0.72264 -4.375,-2.17187 -1.01172,-1.44531 -1.51563,-3.05469 -1.51563,-4.82813 0,-1.94531 0.57031,-3.625 1.71875,-5.03125 1.15625,-1.40625 2.89063,-2.10937 5.20312,-2.10937 2.03907,0 3.58204,0.54687 4.625,1.64062 1.05079,1.08594 1.75391,2.46486 2.10937,4.14063 0.36328,1.66798 0.54688,3.38281 0.54688,5.14062 0,7.78125 -2.46093,11.67188 -7.375,11.67188 -3.40625,0 -5.52344,-1.78516 -6.34374,-5.35938 z m 9.04687,-10.35937 c 0,-1.07031 -0.22656,-1.89844 -0.67187,-2.48438 -0.44923,-0.59375 -1.0586,-0.89062 -1.82813,-0.89062 -0.65624,0 -1.21875,0.28125 -1.6875,0.84375 -0.46093,0.55469 -0.6875,1.39062 -0.6875,2.51562 0,2.25 0.8125,3.375 2.4375,3.375 1.625,0 2.4375,-1.11718 2.4375,-3.35937 z"
       style="fill:#339900;fill-opacity:1;fill-rule:nonzero;stroke:none;stroke-width:1.33333"
       aria-label="23456789101112"
       inkscape:label="numeros_green_9"
       sodipodi:nodetypes="ccsccscscsccssscscscsss" />
    <path
       id="path124"
       d="m 327.11239,280.16638 c 2.25782,1.32423 3.39063,3.21486 3.39063,5.67188 0,1.84375 -0.65235,3.41406 -1.95313,4.70312 -1.29296,1.28125 -3.19531,1.92188 -5.70312,1.92188 -2.41798,0 -4.22656,-0.5625 -5.42188,-1.6875 -1.1875,-1.125 -1.78126,-2.57813 -1.78126,-4.35938 0,-1.05077 0.24219,-1.98437 0.73439,-2.79687 0.5,-0.8125 1.44531,-1.57813 2.84375,-2.29688 -1.96875,-1.25 -2.95314,-2.96875 -2.95314,-5.15625 0,-1.71875 0.57814,-3.19531 1.73439,-4.4375 1.15624,-1.23827 2.90624,-1.85937 5.25,-1.85937 2.21875,0 3.87891,0.51562 4.98437,1.54687 1.11328,1.03125 1.67187,2.38673 1.67187,4.0625 0,2.04298 -0.93359,3.60548 -2.79687,4.6875 z m -2.90625,-1.45312 c 1.03907,-0.97656 1.56249,-1.98438 1.56249,-3.01563 0,-0.80077 -0.21484,-1.45312 -0.64061,-1.95312 -0.41797,-0.5 -1.01563,-0.75 -1.79688,-0.75 -0.75,0 -1.36719,0.23048 -1.84375,0.6875 -0.46876,0.44923 -0.70313,1.02344 -0.70313,1.71875 0,0.83594 0.36719,1.51173 1.10937,2.03125 0.75,0.52344 1.51954,0.94923 2.31251,1.28125 z m -2.21875,4.17187 c -1.39844,0.85548 -2.09376,1.92969 -2.09376,3.21875 0,0.91798 0.27344,1.65236 0.82814,2.20313 0.56249,0.55469 1.32812,0.82812 2.29686,0.82812 0.91407,0 1.64063,-0.25 2.17188,-0.75 0.53126,-0.50781 0.79688,-1.10937 0.79688,-1.79687 0,-0.57031 -0.22657,-1.13281 -0.67188,-1.6875 -0.43749,-0.5625 -1.54688,-1.23438 -3.32812,-2.01563 z"
       style="fill:#339900;fill-opacity:1;fill-rule:nonzero;stroke:none;stroke-width:1.33333"
       aria-label="23456789101112"
       inkscape:label="numeros_green_8"
       sodipodi:nodetypes="cssscsccscscsccscscscccscscscc" />
    <path
       id="path125"
       d="m 369.26301,270.21326 h 13.01562 v 3.6875 c -3.49218,4.5 -5.26172,10.57423 -5.3125,18.21875 h -5.23438 c 0.082,-6.6875 2.22267,-12.5625 6.42188,-17.625 h -9.26562 z"
       style="fill:#339900;fill-opacity:1;fill-rule:nonzero;stroke:none;stroke-width:1.33333"
       aria-label="23456789101112"
       inkscape:label="numeros_green_7"
       sodipodi:nodetypes="cccccccc" />
    <path
       id="path126"
       d="m 435.06473,275.69763 -3.90625,1.17188 c -0.35547,-2.33202 -1.26561,-3.5 -2.73437,-3.5 -0.92968,0 -1.64843,0.47656 -2.15624,1.42187 -0.51172,0.94923 -0.78907,2.94923 -0.82814,6 0.90626,-1.66406 2.24219,-2.5 4.01563,-2.5 1.61328,0 2.97265,0.61719 4.07812,1.84375 1.10157,1.23048 1.65625,2.90625 1.65625,5.03125 0,2.38673 -0.65234,4.19923 -1.95312,5.4375 -1.29297,1.24219 -2.94922,1.85938 -4.96874,1.85938 -4.84376,0 -7.26563,-3.67188 -7.26563,-11.01563 0,-3.96875 0.66405,-6.89062 2,-8.76562 1.34375,-1.875 3.19531,-2.8125 5.56249,-2.8125 1.71875,0 3.14063,0.49219 4.26563,1.46875 1.125,0.98048 1.86719,2.43359 2.23437,4.35937 z m -4.54686,9.46875 c 0,-2.23827 -0.79298,-3.35937 -2.375,-3.35937 -1.65626,0 -2.48439,1.23048 -2.48439,3.6875 0,1.16798 0.21876,2.03906 0.65625,2.60937 0.44532,0.57423 1.03516,0.85938 1.76563,0.85938 1.625,0 2.43751,-1.26563 2.43751,-3.79688 z"
       style="fill:#339900;fill-opacity:1;fill-rule:nonzero;stroke:none;stroke-width:1.33333"
       aria-label="23456789101112"
       inkscape:label="numeros_green_6"
       sodipodi:nodetypes="ccsccscscsscsccssscss" />
    <path
       id="path127"
       d="m 475.03635,270.04139 h 11.71875 l -0.46875,4.28125 h -7.73439 l -0.28124,4.9375 c 0.91406,-1.25 2.16406,-1.875 3.75,-1.875 1.5625,0 2.92968,0.57422 4.10938,1.71875 1.18749,1.14844 1.78125,2.96484 1.78125,5.45312 0,2.55469 -0.6836,4.48047 -2.04688,5.78125 -1.35547,1.30469 -3.125,1.95313 -5.31251,1.95313 -2.03124,0 -3.70312,-0.5625 -5.01561,-1.6875 -1.30469,-1.125 -2.04688,-2.62891 -2.23439,-4.51563 l 4.375,-0.71875 c 0.25,2 1.19532,3 2.84376,3 1.8125,0 2.71875,-1.17968 2.71875,-3.54687 0,-1.05078 -0.24609,-1.89844 -0.73437,-2.54688 -0.48047,-0.64453 -1.16798,-0.96875 -2.06251,-0.96875 -1.17968,0 -1.98047,0.57032 -2.40624,1.70313 l -3.76563,-0.71875 z"
       style="fill:#339900;fill-opacity:1;fill-rule:nonzero;stroke:none;stroke-width:1.33333"
       aria-label="23456789101112"
       inkscape:label="numeros_green_5"
       sodipodi:nodetypes="cccccscscscccsscsccc" />
    <path
       id="path128"
       d="m 533.01061,270.04139 h 5.23437 v 13.35937 h 2.45313 v 3.73438 h -2.45313 v 5.15625 h -4.8125 v -5.15625 h -7.89062 v -3.73438 z m 0.79687,13.60937 v -9.01562 l -4.85937,9.01562 z"
       style="fill:#339900;fill-opacity:1;fill-rule:nonzero;stroke:none;stroke-width:1.33333"
       aria-label="23456789101112"
       inkscape:label="numeros_green_4"
       sodipodi:nodetypes="cccccccccccccccc" />
    <path
       id="path129"
       d="m 583.00565,276.29138 -4.1875,-0.78125 c 1.10157,-3.75781 3.50782,-5.64062 7.21875,-5.64062 2.03125,0 3.61328,0.52734 4.75,1.57812 1.14453,1.05469 1.71875,2.48438 1.71875,4.29688 0,2.3125 -1.08593,3.9375 -3.25,4.875 2.45703,0.78125 3.6875,2.52344 3.6875,5.21875 0,2.16798 -0.67969,3.8125 -2.03125,4.9375 -1.34375,1.125 -3.05859,1.6875 -5.14062,1.6875 -1.875,0 -3.50781,-0.48827 -4.89063,-1.46875 -1.375,-0.98827 -2.23047,-2.66016 -2.5625,-5.01563 l 4.25,-0.71875 c 0.21875,2.1875 1.17188,3.28125 2.85938,3.28125 0.78125,0 1.39844,-0.25781 1.85937,-0.78125 0.45703,-0.53125 0.6875,-1.28125 0.6875,-2.25 0,-1.98827 -1.12109,-2.98437 -3.35937,-2.98437 l -1.34375,0.0156 v -3.54687 h 1.34375 c 0.70703,0 1.26562,-0.0664 1.67187,-0.20313 0.41407,-0.13281 0.75782,-0.41406 1.03125,-0.84375 0.26953,-0.42577 0.40625,-0.98827 0.40625,-1.6875 0,-1.78125 -0.73437,-2.67187 -2.20312,-2.67187 -1.28125,0 -2.1211,0.90234 -2.51563,2.70312 z"
       style="fill:#339900;fill-opacity:1;fill-rule:nonzero;stroke:none;stroke-width:1.33333"
       aria-label="23456789101112"
       inkscape:label="numeros_green_3"
       sodipodi:nodetypes="ccscscscscccscscccsccsssc" />
    <path
       id="path130"
       d="m 635.32815,278.10389 -4.375,-0.89063 c 0.70703,-4.78125 3.125,-7.17187 7.25,-7.17187 2.22657,0 3.92188,0.62109 5.07813,1.85937 1.16406,1.23047 1.75,2.74219 1.75,4.53125 0,1.84375 -0.64844,3.64844 -1.9375,5.40625 -1.28125,1.76172 -3.69531,3.82032 -7.23438,6.17188 h 9.46875 l -0.35937,4.28125 h -14.01563 v -4.28125 c 4.00782,-3.4375 6.50782,-5.86328 7.5,-7.28125 1,-1.41406 1.5,-2.76563 1.5,-4.04688 0,-1.8125 -0.6875,-2.71875 -2.0625,-2.71875 -0.82422,0 -1.42968,0.35938 -1.8125,1.07813 -0.375,0.71094 -0.625,1.73047 -0.75,3.0625 z"
       style="fill:#339900;fill-opacity:1;fill-rule:nonzero;stroke:none;stroke-width:1.33333"
       aria-label="23456789101112"
       inkscape:label="numeros_green_2"
       sodipodi:nodetypes="ccscscccccccsscc" />
    <g
       id="g_lock_circle_green"
       inkscape:label="circle_green">
      <path
         id="path60"
         d="m 531.688,210.875 c 0,7.566 -6.133,13.699 -13.7,13.699 -7.566,0 -13.699,-6.133 -13.699,-13.699 0,-7.566 6.133,-13.699 13.699,-13.699 7.567,0 13.7,6.133 13.7,13.699 z"
         style="fill:#f0fff0;fill-opacity:1;fill-rule:nonzero;stroke:#015a01;stroke-width:1.36985;stroke-linecap:butt;stroke-linejoin:miter;stroke-miterlimit:4;stroke-dasharray:none;stroke-opacity:1"
         transform="scale(1.3333333)" />
    </g>
    <g
       id="g_unlock_green"
       inkscape:label="unlock_green">
      <path
         id="path61"
         d="m 514.605,636.335 9.938,-3.766 c 0.785,-0.296 1.184,-1.179 0.891,-1.98 l -2.782,-7.57 c -0.293,-0.797 -1.164,-1.203 -1.949,-0.903 l -9.937,3.766 c -0.786,0.297 -1.184,1.18 -0.891,1.977 l 2.781,7.57 c 0.293,0.801 1.16,1.203 1.949,0.906 z"
         style="fill:#015a01;fill-opacity:1;fill-rule:nonzero;stroke:none"
         transform="matrix(1.3333333,0,0,-1.3333333,0,1122.5197)" />
      <path
         id="path62"
         d="m 519.273,629.226 c -0.293,-0.793 -1.168,-1.2 -1.949,-0.903 -0.785,0.297 -1.183,1.184 -0.89,1.981 0.293,0.797 1.164,1.199 1.949,0.902 0.781,-0.297 1.183,-1.183 0.89,-1.98 z"
         style="fill:#f0fff0;fill-opacity:1;fill-rule:nonzero;stroke:none"
         transform="matrix(1.3333333,0,0,-1.3333333,0,1122.5197)" />
      <path
         id="path63"
         d="m 517.801,625.78 -2.571,0.918 2.614,3.235 z"
         style="fill:#f0fff0;fill-opacity:1;fill-rule:nonzero;stroke:none"
         transform="matrix(1.3333333,0,0,-1.3333333,0,1122.5197)" />
      <path
         id="path64"
         d="m -764.053,98.124 c 1.18,-0.165 0.801,1.515 0.271,1.965 -1.444,1.224 -3.509,0.035 -4.204,-1.425 -1.246,-2.603 0.594,-5.532 3.116,-6.439 2.8,-1.013 5.924,0.241 7.602,2.609"
         style="fill:none;stroke:#015a01;stroke-width:1.8857;stroke-linecap:butt;stroke-linejoin:miter;stroke-miterlimit:4;stroke-dasharray:none;stroke-opacity:1"
         transform="matrix(-0.94222933,-0.193228,-0.265044,1.3333333,0,0)" />
    </g>
    <g
       id="g_lock_green"
       inkscape:label="lock_green"
       style="display:none">
      <path
         id="path61"
         d="m 514.605,636.335 9.938,-3.766 c 0.785,-0.296 1.184,-1.179 0.891,-1.98 l -2.782,-7.57 c -0.293,-0.797 -1.164,-1.203 -1.949,-0.903 l -9.937,3.766 c -0.786,0.297 -1.184,1.18 -0.891,1.977 l 2.781,7.57 c 0.293,0.801 1.16,1.203 1.949,0.906 z"
         style="fill:#015a01;fill-opacity:1;fill-rule:nonzero;stroke:none"
         transform="matrix(1.3333333,0,0,-1.3333333,0,1122.5197)" />
      
    
      <path
         id="path45"
         d="m -764.053,98.124 c 1.18,-0.165 0.801,1.515 0.271,1.965 -1.444,1.224 -3.509,0.035 -4.204,-1.425 -1.246,-2.603 0.594,-5.532 3.116,-6.439 2.8,-1.013 6.90954,0.291927 8.24805,4.6945"
         style="fill:none;stroke:#015a01;stroke-width:1.8857;stroke-linecap:butt;stroke-linejoin:miter;stroke-miterlimit:4;stroke-dasharray:none;stroke-opacity:1"
         transform="matrix(-0.94222933,-0.193228,-0.265044,1.3333333,0,0)"
         sodipodi:nodetypes="ccccc" />
    </g>
    <path
       id="path65"
       d="m 40.766,246.781 -0.078,-17.845 15.496,8.852 z"
       style="fill:#000000;fill-opacity:1;fill-rule:nonzero;stroke:#ffffff;stroke-width:1.34794;stroke-linecap:butt;stroke-linejoin:miter;stroke-miterlimit:4;stroke-dasharray:none;stroke-opacity:1"
       transform="scale(1.3333333,1.1826)"
       inkscape:label="block_panel_green" />
    <path
       id="path66"
       d="M 48.813,603.616 H 538.536 V 555.671 H 48.813 Z"
       style="fill:#336699;fill-opacity:1;fill-rule:nonzero;stroke:none"
       transform="matrix(1.3333333,0,0,-1.3333333,0,1122.5197)" />
    <path
       id="path67"
       d="m 497.441,262.246 h 6.848"
       style="fill:none;stroke:#003366;stroke-width:5.47942;stroke-linecap:butt;stroke-linejoin:miter;stroke-miterlimit:4;stroke-dasharray:none;stroke-opacity:1"
       transform="scale(1.3333333)" />
    <path
       id="path68"
       d="M 72.785,243.41 H 490.59 c 3.797,0 6.851,3.055 6.851,6.848 v 23.972 c 0,3.797 -3.054,6.852 -6.851,6.852 H 72.785 c -3.793,0 -6.847,-3.055 -6.847,-6.852 v -23.972 c 0,-3.793 3.054,-6.848 6.847,-6.848 z"
       style="fill:#003366;fill-opacity:1;fill-rule:nonzero;stroke:#003366;stroke-width:3.42463;stroke-linecap:butt;stroke-linejoin:miter;stroke-miterlimit:4;stroke-dasharray:none;stroke-opacity:1"
       transform="scale(1.3333333)" />
    <path
       id="path69"
       d="m 72.785,598.48 h 23.973 c 3.797,0 6.851,-3.055 6.851,-6.848 v -23.973 c 0,-3.797 -3.054,-6.851 -6.851,-6.851 H 72.785 c -3.793,0 -6.847,3.054 -6.847,6.851 v 23.973 c 0,3.793 3.054,6.848 6.847,6.848 z"
       style="fill:#e0e0ff;fill-opacity:1;fill-rule:nonzero;stroke:none"
       transform="matrix(1.3333333,0,0,-1.3333333,0,1122.5197)"
       inkscape:label="panel_blue_12" />
    <path
       id="path70"
       d="m 112.168,598.48 h 23.973 c 3.797,0 6.851,-3.055 6.851,-6.848 v -23.973 c 0,-3.797 -3.054,-6.851 -6.851,-6.851 h -23.973 c -3.793,0 -6.848,3.054 -6.848,6.851 v 23.973 c 0,3.793 3.055,6.848 6.848,6.848 z"
       style="fill:#e0e0ff;fill-opacity:1;fill-rule:nonzero;stroke:none"
       transform="matrix(1.3333333,0,0,-1.3333333,0,1122.5197)"
       inkscape:label="panel_blue_11" />
    <path
       id="path71"
       d="m 151.551,598.48 h 23.972 c 3.797,0 6.852,-3.055 6.852,-6.848 v -23.973 c 0,-3.797 -3.055,-6.851 -6.852,-6.851 h -23.972 c -3.793,0 -6.848,3.054 -6.848,6.851 v 23.973 c 0,3.793 3.055,6.848 6.848,6.848 z"
       style="fill:#e0e0ff;fill-opacity:1;fill-rule:nonzero;stroke:none"
       transform="matrix(1.3333333,0,0,-1.3333333,0,1122.5197)"
       inkscape:label="panel_blue_10" />
    <path
       id="path72"
       d="m 190.938,598.48 h 23.972 c 3.793,0 6.848,-3.055 6.848,-6.848 v -23.973 c 0,-3.797 -3.055,-6.851 -6.848,-6.851 h -23.972 c -3.797,0 -6.852,3.054 -6.852,6.851 v 23.973 c 0,3.793 3.055,6.848 6.852,6.848 z"
       style="fill:#e0e0ff;fill-opacity:1;fill-rule:nonzero;stroke:none"
       transform="matrix(1.3333333,0,0,-1.3333333,0,1122.5197)"
       inkscape:label="panel_blue_9" />
    <path
       id="path73"
       d="m 230.32,598.48 h 23.973 c 3.793,0 6.848,-3.055 6.848,-6.848 v -23.973 c 0,-3.797 -3.055,-6.851 -6.848,-6.851 H 230.32 c -3.797,0 -6.851,3.054 -6.851,6.851 v 23.973 c 0,3.793 3.054,6.848 6.851,6.848 z"
       style="fill:#e0e0ff;fill-opacity:1;fill-rule:nonzero;stroke:none"
       transform="matrix(1.3333333,0,0,-1.3333333,0,1122.5197)"
       inkscape:label="panel_blue_8" />
    <path
       id="path74"
       d="m 269.703,598.48 h 23.973 c 3.793,0 6.847,-3.055 6.847,-6.848 v -23.973 c 0,-3.797 -3.054,-6.851 -6.847,-6.851 h -23.973 c -3.797,0 -6.851,3.054 -6.851,6.851 v 23.973 c 0,3.793 3.054,6.848 6.851,6.848 z"
       style="fill:#e0e0ff;fill-opacity:1;fill-rule:nonzero;stroke:none"
       transform="matrix(1.3333333,0,0,-1.3333333,0,1122.5197)"
       inkscape:label="panel_blue_7" />
    <path
       id="path75"
       d="m 309.086,598.48 h 23.973 c 3.793,0 6.847,-3.055 6.847,-6.848 v -23.973 c 0,-3.797 -3.054,-6.851 -6.847,-6.851 h -23.973 c -3.793,0 -6.848,3.054 -6.848,6.851 v 23.973 c 0,3.793 3.055,6.848 6.848,6.848 z"
       style="fill:#e0e0ff;fill-opacity:1;fill-rule:nonzero;stroke:none"
       transform="matrix(1.3333333,0,0,-1.3333333,0,1122.5197)"
       inkscape:label="panel_blue_6" />
    <path
       id="path76"
       d="m 348.469,598.48 h 23.972 c 3.793,0 6.848,-3.055 6.848,-6.848 v -23.973 c 0,-3.797 -3.055,-6.851 -6.848,-6.851 h -23.972 c -3.793,0 -6.848,3.054 -6.848,6.851 v 23.973 c 0,3.793 3.055,6.848 6.848,6.848 z"
       style="fill:#e0e0ff;fill-opacity:1;fill-rule:nonzero;stroke:none"
       transform="matrix(1.3333333,0,0,-1.3333333,0,1122.5197)"
       inkscape:label="panel_blue_5" />
    <path
       id="path77"
       d="m 387.852,598.48 h 23.972 c 3.797,0 6.852,-3.055 6.852,-6.848 v -23.973 c 0,-3.797 -3.055,-6.851 -6.852,-6.851 h -23.972 c -3.793,0 -6.848,3.054 -6.848,6.851 v 23.973 c 0,3.793 3.055,6.848 6.848,6.848 z"
       style="fill:#e0e0ff;fill-opacity:1;fill-rule:nonzero;stroke:none"
       transform="matrix(1.3333333,0,0,-1.3333333,0,1122.5197)"
       inkscape:label="panel_blue_4" />
    <path
       id="path78"
       d="m 427.234,598.48 h 23.973 c 3.797,0 6.852,-3.055 6.852,-6.848 v -23.973 c 0,-3.797 -3.055,-6.851 -6.852,-6.851 h -23.973 c -3.793,0 -6.847,3.054 -6.847,6.851 v 23.973 c 0,3.793 3.054,6.848 6.847,6.848 z"
       style="fill:#e0e0ff;fill-opacity:1;fill-rule:nonzero;stroke:none"
       transform="matrix(1.3333333,0,0,-1.3333333,0,1122.5197)"
       inkscape:label="panel_blue_3" />
    <path
       id="path79"
       d="m 466.617,598.48 h 23.973 c 3.797,0 6.851,-3.055 6.851,-6.848 v -23.973 c 0,-3.797 -3.054,-6.851 -6.851,-6.851 h -23.973 c -3.793,0 -6.847,3.054 -6.847,6.851 v 23.973 c 0,3.793 3.054,6.848 6.847,6.848 z"
       style="fill:#e0e0ff;fill-opacity:1;fill-rule:nonzero;stroke:none"
       transform="matrix(1.3333333,0,0,-1.3333333,0,1122.5197)"
       inkscape:label="panel_blue_2" />
    <path
       id="path109"
       d="m 103.45125,338.67667 h 3.67187 v 18.53125 h 3.625 v 3.57813 H 98.623128 v -3.57813 h 3.687492 v -12.9375 c -1.09376,1.13672 -2.324217,2.05469 -3.687492,2.75 v -4.29687 c 1.957012,-1.01953 3.566402,-2.36719 4.828122,-4.04688 z m 13.98828,7.92188 -4.375,-0.89063 c 0.70703,-4.78125 3.125,-7.17187 7.25,-7.17187 2.22656,0 3.92187,0.62109 5.07812,1.85937 1.16407,1.23047 1.75,2.74219 1.75,4.53125 0,1.84375 -0.64844,3.64844 -1.93751,5.40625 -1.28124,1.76172 -3.6953,3.82032 -7.23437,6.17188 h 9.46876 l -0.35939,4.28125 h -14.01561 v -4.28125 c 4.00781,-3.4375 6.50781,-5.86328 7.5,-7.28125 1,-1.41406 1.5,-2.76563 1.5,-4.04688 0,-1.8125 -0.68751,-2.71875 -2.06251,-2.71875 -0.82421,0 -1.42968,0.35938 -1.81249,1.07813 -0.375,0.71094 -0.625,1.73047 -0.75,3.0625 z"
       style="fill:#336699;fill-opacity:1;fill-rule:nonzero;stroke:none;stroke-width:1.33333"
       aria-label="23456789101112"
       inkscape:label="numeros_blue_12"
       sodipodi:nodetypes="ccccccccccccccscscccccccsscc" />
    <path
       id="path110"
       d="m 155.90656,338.60636 h 3.67187 v 18.53125 h 3.625 v 3.57813 h -12.125 v -3.57813 h 3.68751 v -12.9375 c -1.09376,1.13672 -2.32423,2.05469 -3.68751,2.75 v -4.29687 c 1.95704,-1.01953 3.56641,-2.36719 4.82813,-4.04688 z m 16.80078,0 h 3.67188 v 18.53125 h 3.625 v 3.57813 h -12.125 v -3.57813 h 3.68749 v -12.9375 c -1.09375,1.13672 -2.32421,2.05469 -3.68749,2.75 v -4.29687 c 1.95702,-1.01953 3.5664,-2.36719 4.82812,-4.04688 z"
       style="fill:#336699;fill-opacity:1;fill-rule:nonzero;stroke:none;stroke-width:1.33333"
       aria-label="23456789101112"
       inkscape:label="numeros_blue_11"
       sodipodi:nodetypes="cccccccccccccccccccccccc" />
    <path
       id="path111"
       d="m 208.24536,338.5048 h 3.67187 v 18.53125 h 3.625 v 3.57813 h -12.125 v -3.57813 h 3.6875 v -12.9375 c -1.09376,1.13673 -2.32422,2.05469 -3.6875,2.75 v -4.29687 c 1.95704,-1.01952 3.56641,-2.36719 4.82813,-4.04688 z m 24.4414,10.89063 c 0,3.96094 -0.57421,6.875 -1.71875,8.75 -1.13672,1.875 -3.00781,2.8125 -5.60937,2.8125 -2.68751,0 -4.57813,-0.96875 -5.67188,-2.90625 -1.09375,-1.94531 -1.64063,-4.64844 -1.64063,-8.10938 0,-3.97656 0.56642,-6.89843 1.70314,-8.76562 1.14452,-1.875 3.01561,-2.8125 5.60937,-2.8125 2.68749,0 4.57812,0.97656 5.67187,2.92187 1.10156,1.9375 1.65625,4.64063 1.65625,8.10938 z m -5.09375,0.25 c 0,-3.3125 -0.15234,-5.4375 -0.45313,-6.375 -0.29296,-0.9375 -0.88671,-1.40625 -1.78124,-1.40625 -0.80469,0 -1.38281,0.39844 -1.73437,1.1875 -0.34376,0.79298 -0.51563,2.99219 -0.51563,6.59375 0,3.5625 0.16405,5.75781 0.5,6.57812 0.34375,0.8125 0.92577,1.21875 1.75,1.21875 0.78905,0 1.35937,-0.37889 1.70312,-1.14062 0.35156,-0.76952 0.53125,-2.98827 0.53125,-6.65625 z"
       style="fill:#336699;fill-opacity:1;fill-rule:nonzero;stroke:none;stroke-width:1.33333"
       aria-label="23456789101112"
       inkscape:label="numeros_blue_10"
       sodipodi:nodetypes="ccccccccccccscscscscsscscscscs" />
    <path
       id="path112"
       d="m 263.94545,355.59855 4.20312,-0.8125 c 0.26953,1.78125 1.05079,2.67188 2.34375,2.67188 1.78906,0 2.6875,-2.08202 2.6875,-6.25 l -0.0156,-0.67188 c -0.85546,1.3125 -2.125,1.96875 -3.81249,1.96875 -1.90625,0 -3.3672,-0.72264 -4.375,-2.17187 -1.01172,-1.44531 -1.51563,-3.05469 -1.51563,-4.82813 0,-1.94531 0.57031,-3.625 1.71875,-5.03125 1.15625,-1.40625 2.89063,-2.10937 5.20312,-2.10937 2.03907,0 3.58204,0.54687 4.625,1.64062 1.05079,1.08594 1.75391,2.46486 2.10937,4.14063 0.36328,1.66798 0.54688,3.38281 0.54688,5.14062 0,7.78125 -2.46093,11.67188 -7.375,11.67188 -3.40625,0 -5.52344,-1.78516 -6.34374,-5.35938 z m 9.04687,-10.35937 c 0,-1.07031 -0.22656,-1.89844 -0.67187,-2.48438 -0.44923,-0.59375 -1.0586,-0.89062 -1.82813,-0.89062 -0.65624,0 -1.21875,0.28125 -1.6875,0.84375 -0.46093,0.55469 -0.6875,1.39062 -0.6875,2.51562 0,2.25 0.8125,3.375 2.4375,3.375 1.625,0 2.4375,-1.11718 2.4375,-3.35937 z"
       style="fill:#336699;fill-opacity:1;fill-rule:nonzero;stroke:none;stroke-width:1.33333"
       aria-label="23456789101112"
       inkscape:label="numeros_blue_9"
       sodipodi:nodetypes="ccsccscscsccssscscscsss" />
    <path
       id="path113"
       d="m 327.11239,348.66105 c 2.25782,1.32423 3.39063,3.21486 3.39063,5.67188 0,1.84375 -0.65235,3.41406 -1.95313,4.70312 -1.29296,1.28125 -3.19531,1.92188 -5.70312,1.92188 -2.41798,0 -4.22656,-0.5625 -5.42188,-1.6875 -1.1875,-1.125 -1.78126,-2.57813 -1.78126,-4.35938 0,-1.05077 0.24219,-1.98437 0.73439,-2.79687 0.5,-0.8125 1.44531,-1.57813 2.84375,-2.29688 -1.96875,-1.25 -2.95314,-2.96875 -2.95314,-5.15625 0,-1.71875 0.57814,-3.19531 1.73439,-4.4375 1.15624,-1.23827 2.90624,-1.85937 5.25,-1.85937 2.21875,0 3.87891,0.51562 4.98437,1.54687 1.11328,1.03125 1.67187,2.38673 1.67187,4.0625 0,2.04298 -0.93359,3.60548 -2.79687,4.6875 z m -2.90625,-1.45312 c 1.03907,-0.97656 1.56249,-1.98438 1.56249,-3.01563 0,-0.80077 -0.21484,-1.45312 -0.64061,-1.95312 -0.41797,-0.5 -1.01563,-0.75 -1.79688,-0.75 -0.75,0 -1.36719,0.23048 -1.84375,0.6875 -0.46876,0.44923 -0.70313,1.02344 -0.70313,1.71875 0,0.83594 0.36719,1.51173 1.10937,2.03125 0.75,0.52344 1.51954,0.94923 2.31251,1.28125 z m -2.21875,4.17187 c -1.39844,0.85548 -2.09376,1.92969 -2.09376,3.21875 0,0.91798 0.27344,1.65236 0.82814,2.20313 0.56249,0.55469 1.32812,0.82812 2.29686,0.82812 0.91407,0 1.64063,-0.25 2.17188,-0.75 0.53126,-0.50781 0.79688,-1.10937 0.79688,-1.79687 0,-0.57031 -0.22657,-1.13281 -0.67188,-1.6875 -0.43749,-0.5625 -1.54688,-1.23438 -3.32812,-2.01563 z"
       style="fill:#336699;fill-opacity:1;fill-rule:nonzero;stroke:none;stroke-width:1.33333"
       aria-label="23456789101112"
       inkscape:label="numeros_blue_8"
       sodipodi:nodetypes="cssscsccscscsccscscscccscscscc" />
    <path
       id="path114"
       d="m 369.26301,338.70793 h 13.01562 v 3.6875 c -3.49218,4.5 -5.26172,10.57423 -5.3125,18.21875 h -5.23438 c 0.082,-6.6875 2.22267,-12.5625 6.42188,-17.625 h -9.26562 z"
       style="fill:#336699;fill-opacity:1;fill-rule:nonzero;stroke:none;stroke-width:1.33333"
       aria-label="23456789101112"
       inkscape:label="numeros_blue_7"
       sodipodi:nodetypes="cccccccc" />
    <path
       id="path115"
       d="m 435.06473,344.1923 -3.90625,1.17188 c -0.35547,-2.33202 -1.26561,-3.5 -2.73437,-3.5 -0.92968,0 -1.64843,0.47656 -2.15624,1.42187 -0.51172,0.94923 -0.78907,2.94923 -0.82814,6 0.90626,-1.66406 2.24219,-2.5 4.01563,-2.5 1.61328,0 2.97265,0.61719 4.07812,1.84375 1.10157,1.23048 1.65625,2.90625 1.65625,5.03125 0,2.38673 -0.65234,4.19923 -1.95312,5.4375 -1.29297,1.24219 -2.94922,1.85938 -4.96874,1.85938 -4.84376,0 -7.26563,-3.67188 -7.26563,-11.01563 0,-3.96875 0.66405,-6.89062 2,-8.76562 1.34375,-1.875 3.19531,-2.8125 5.56249,-2.8125 1.71875,0 3.14063,0.49219 4.26563,1.46875 1.125,0.98048 1.86719,2.43359 2.23437,4.35937 z m -4.54686,9.46875 c 0,-2.23827 -0.79298,-3.35937 -2.375,-3.35937 -1.65626,0 -2.48439,1.23048 -2.48439,3.6875 0,1.16798 0.21876,2.03906 0.65625,2.60937 0.44532,0.57423 1.03516,0.85938 1.76563,0.85938 1.625,0 2.43751,-1.26563 2.43751,-3.79688 z"
       style="fill:#336699;fill-opacity:1;fill-rule:nonzero;stroke:none;stroke-width:1.33333"
       aria-label="23456789101112"
       inkscape:label="numeros_blue_6"
       sodipodi:nodetypes="ccsccscscsscsccssscss" />
    <path
       id="path116"
       d="m 475.03635,338.53605 h 11.71875 l -0.46875,4.28125 h -7.73439 l -0.28124,4.9375 c 0.91406,-1.25 2.16406,-1.875 3.75,-1.875 1.5625,0 2.92968,0.57422 4.10938,1.71875 1.18749,1.14844 1.78125,2.96484 1.78125,5.45312 0,2.55469 -0.6836,4.48047 -2.04688,5.78125 -1.35547,1.30469 -3.125,1.95313 -5.31251,1.95313 -2.03124,0 -3.70312,-0.5625 -5.01561,-1.6875 -1.30469,-1.125 -2.04688,-2.62891 -2.23439,-4.51563 l 4.375,-0.71875 c 0.25,2 1.19532,3 2.84376,3 1.8125,0 2.71875,-1.17968 2.71875,-3.54687 0,-1.05078 -0.24609,-1.89844 -0.73437,-2.54688 -0.48047,-0.64453 -1.16798,-0.96875 -2.06251,-0.96875 -1.17968,0 -1.98047,0.57032 -2.40624,1.70313 l -3.76563,-0.71875 z"
       style="fill:#336699;fill-opacity:1;fill-rule:nonzero;stroke:none;stroke-width:1.33333"
       aria-label="23456789101112"
       inkscape:label="numeros_blue_5"
       sodipodi:nodetypes="cccccscscscccsscsccc" />
    <path
       id="path117"
       d="m 533.01061,338.53605 h 5.23437 v 13.35937 h 2.45313 v 3.73438 h -2.45313 v 5.15625 h -4.8125 v -5.15625 h -7.89062 v -3.73438 z m 0.79687,13.60937 v -9.01562 l -4.85937,9.01562 z"
       style="fill:#336699;fill-opacity:1;fill-rule:nonzero;stroke:none;stroke-width:1.33333"
       aria-label="23456789101112"
       inkscape:label="numeros_blue_4"
       sodipodi:nodetypes="cccccccccccccccc" />
    <path
       id="path118"
       d="m 583.00565,344.78605 -4.1875,-0.78125 c 1.10157,-3.75781 3.50782,-5.64062 7.21875,-5.64062 2.03125,0 3.61328,0.52734 4.75,1.57812 1.14453,1.05469 1.71875,2.48438 1.71875,4.29688 0,2.3125 -1.08593,3.9375 -3.25,4.875 2.45703,0.78125 3.6875,2.52344 3.6875,5.21875 0,2.16798 -0.67969,3.8125 -2.03125,4.9375 -1.34375,1.125 -3.05859,1.6875 -5.14062,1.6875 -1.875,0 -3.50781,-0.48827 -4.89063,-1.46875 -1.375,-0.98827 -2.23047,-2.66016 -2.5625,-5.01563 l 4.25,-0.71875 c 0.21875,2.1875 1.17188,3.28125 2.85938,3.28125 0.78125,0 1.39844,-0.25781 1.85937,-0.78125 0.45703,-0.53125 0.6875,-1.28125 0.6875,-2.25 0,-1.98827 -1.12109,-2.98437 -3.35937,-2.98437 l -1.34375,0.0156 v -3.54687 h 1.34375 c 0.70703,0 1.26562,-0.0664 1.67187,-0.20313 0.41407,-0.13281 0.75782,-0.41406 1.03125,-0.84375 0.26953,-0.42577 0.40625,-0.98827 0.40625,-1.6875 0,-1.78125 -0.73437,-2.67187 -2.20312,-2.67187 -1.28125,0 -2.1211,0.90234 -2.51563,2.70312 z"
       style="fill:#336699;fill-opacity:1;fill-rule:nonzero;stroke:none;stroke-width:1.33333"
       aria-label="23456789101112"
       inkscape:label="numeros_blue_3"
       sodipodi:nodetypes="ccscscscscccscscccsccsssc" />
    <path
       id="path119"
       d="m 635.32815,346.59855 -4.375,-0.89063 c 0.70703,-4.78125 3.125,-7.17187 7.25,-7.17187 2.22657,0 3.92188,0.62109 5.07813,1.85937 1.16406,1.23047 1.75,2.74219 1.75,4.53125 0,1.84375 -0.64844,3.64844 -1.9375,5.40625 -1.28125,1.76172 -3.69531,3.82032 -7.23438,6.17188 h 9.46875 l -0.35937,4.28125 h -14.01563 v -4.28125 c 4.00782,-3.4375 6.50782,-5.86328 7.5,-7.28125 1,-1.41406 1.5,-2.76563 1.5,-4.04688 0,-1.8125 -0.6875,-2.71875 -2.0625,-2.71875 -0.82422,0 -1.42968,0.35938 -1.8125,1.07813 -0.375,0.71094 -0.625,1.73047 -0.75,3.0625 z"
       style="fill:#336699;fill-opacity:1;fill-rule:nonzero;stroke:none;stroke-width:1.33333"
       aria-label="23456789101112"
       inkscape:label="numeros_blue_2"
       sodipodi:nodetypes="ccscscccccccsscc" />
    <g
       id="g_lock_circle_blue"
       inkscape:label="circle_blue">
      <path
         id="path81"
         d="m 531.688,262.246 c 0,7.563 -6.133,13.695 -13.7,13.695 -7.566,0 -13.699,-6.132 -13.699,-13.695 0,-7.566 6.133,-13.699 13.699,-13.699 7.567,0 13.7,6.133 13.7,13.699 z"
         style="fill:#e0e0ff;fill-opacity:1;fill-rule:nonzero;stroke:#003366;stroke-width:1.36985;stroke-linecap:butt;stroke-linejoin:miter;stroke-miterlimit:4;stroke-dasharray:none;stroke-opacity:1"
         transform="scale(1.3333333)" />
    </g>
    <g
       id="g_unlock_blue"
       inkscape:label="unlock_blue">
      <path
         id="path82"
         d="m 514.605,584.964 9.938,-3.766 c 0.785,-0.297 1.184,-1.179 0.891,-1.976 l -2.782,-7.571 c -0.293,-0.8 -1.164,-1.203 -1.949,-0.906 l -9.937,3.766 c -0.786,0.297 -1.184,1.18 -0.891,1.98 l 2.781,7.571 c 0.293,0.797 1.16,1.203 1.949,0.902 z"
         style="fill:#003366;fill-opacity:1;fill-rule:nonzero;stroke:none"
         transform="matrix(1.3333333,0,0,-1.3333333,0,1122.5197)" />
      <path
         id="path83"
         d="m 519.273,577.859 c -0.293,-0.797 -1.168,-1.204 -1.949,-0.907 -0.785,0.301 -1.183,1.184 -0.89,1.981 0.293,0.797 1.164,1.203 1.949,0.906 0.781,-0.297 1.183,-1.184 0.89,-1.98 z"
         style="fill:#e0e0ff;fill-opacity:1;fill-rule:nonzero;stroke:none"
         transform="matrix(1.3333333,0,0,-1.3333333,0,1122.5197)" />
      <path
         id="path84"
         d="m 517.801,574.409 -2.571,0.922 2.614,3.231 z"
         style="fill:#e0e0ff;fill-opacity:1;fill-rule:nonzero;stroke:none"
         transform="matrix(1.3333333,0,0,-1.3333333,0,1122.5197)" />
      <path
         id="path85"
         d="m -777.936,147.479 c 1.178,-0.161 0.801,1.515 0.27,1.969 -1.445,1.224 -3.508,0.031 -4.204,-1.425 -1.246,-2.607 0.594,-5.532 3.117,-6.443 2.799,-1.009 5.924,0.241 7.602,2.609"
         style="fill:none;stroke:#003366;stroke-width:1.8857;stroke-linecap:butt;stroke-linejoin:miter;stroke-miterlimit:4;stroke-dasharray:none;stroke-opacity:1"
         transform="matrix(-0.94222933,-0.193228,-0.265044,1.3333333,0,0)" />
    </g>
    <g
       id="g_lock_blue"
       inkscape:label="lock_blue"
       style="display:none">
      <path
         id="path82"
         d="m 514.605,584.964 9.938,-3.766 c 0.785,-0.297 1.184,-1.179 0.891,-1.976 l -2.782,-7.571 c -0.293,-0.8 -1.164,-1.203 -1.949,-0.906 l -9.937,3.766 c -0.786,0.297 -1.184,1.18 -0.891,1.98 l 2.781,7.571 c 0.293,0.797 1.16,1.203 1.949,0.902 z"
         style="fill:#003366;fill-opacity:1;fill-rule:nonzero;stroke:none"
         transform="matrix(1.3333333,0,0,-1.3333333,0,1122.5197)" />
      
    
      <path
         id="path50"
         d="m -777.936,147.479 c 1.178,-0.161 0.801,1.515 0.27,1.969 -1.445,1.224 -3.508,0.031 -4.204,-1.425 -1.246,-2.607 0.594,-5.532 3.117,-6.443 2.799,-1.009 6.81237,0.168 8.3505,4.60293"
         style="fill:none;stroke:#003366;stroke-width:1.8857;stroke-linecap:butt;stroke-linejoin:miter;stroke-miterlimit:4;stroke-dasharray:none;stroke-opacity:1"
         transform="matrix(-0.94222933,-0.193228,-0.265044,1.3333333,0,0)"
         sodipodi:nodetypes="ccccc" />
    </g>
    <path
       id="path86"
       d="m 40.766,304.7 -0.078,-17.85 15.496,8.857 z"
       style="fill:#000000;fill-opacity:1;fill-rule:nonzero;stroke:#ffffff;stroke-width:1.34794;stroke-linecap:butt;stroke-linejoin:miter;stroke-miterlimit:4;stroke-dasharray:none;stroke-opacity:1"
       transform="scale(1.3333333,1.1826)"
       inkscape:label="block_panel_blue" />
  </g>
</svg>
